<?xml version="1.0" standalone="no"?>
<!DOCTYPE svg PUBLIC "-//W3C//DTD SVG 1.1//EN" "http://www.w3.org/Graphics/SVG/1.1/DTD/svg11.dtd" >
<svg xmlns="http://www.w3.org/2000/svg">
<metadata>
This is a custom SVG webfont generated by Font Squirrel.
Copyright   : Copyright c 2004 by Magenta 2008 by George Triantafyllakos Released under the SIL Open Font License OFL
Designer    : MagentaGeorge Triantafyllakos
Foundry     : MagentaGeorge Triantafyllakos
Foundry URL : httpwwwmagentagr
</metadata>
<defs>
<font id="webfontJmlK3woO" horiz-adv-x="1140" >
<font-face units-per-em="2048" ascent="1638" descent="-410" />
<missing-glyph horiz-adv-x="638" />
<glyph unicode=" "  horiz-adv-x="638" />
<glyph unicode="&#x09;" horiz-adv-x="638" />
<glyph unicode="&#xa0;" horiz-adv-x="638" />
<glyph unicode="!" horiz-adv-x="466" d="M174 1485v-1114q0 -76 -76 -76q-74 0 -73 76v1114q0 88 75 88q74 0 74 -88zM0 102q0 43 29.5 73t72.5 30t73 -30t30 -73t-30 -72.5t-73 -29.5t-72.5 29.5t-29.5 72.5z" />
<glyph unicode="&#x22;" horiz-adv-x="694" d="M0 1186v301q0 88 76 88q74 0 74 -88v-301q0 -80 -76 -80q-74 0 -74 80zM285 1186v301q0 88 77.5 88t77.5 -88v-301q0 -80 -80 -80q-75 0 -75 80z" />
<glyph unicode="#" horiz-adv-x="1353" d="M152 1061h167l58 434q8 76 65 76q29 0 50.5 -20.5t21.5 -47.5v-8l-61 -434h286l62 434q10 78 65 78q29 0 48.5 -19.5t19.5 -48.5v-10l-57 -434h143q33 0 56.5 -16.5t23.5 -49.5q0 -68 -90 -67h-150l-51 -332h147q74 0 74 -70q0 -33 -25.5 -51t-56.5 -18h-155l-56 -357 q-14 -100 -88 -100q-49 0 -49 55q0 2 1 9.5t1 11.5l55 381h-288l-52 -357q-14 -100 -88 -100q-51 0 -51 55q0 2 1 10.5t1 10.5l56 381h-142q-94 0 -94 69q0 35 27.5 52.5t60.5 17.5h164l51 332h-151q-78 0 -78 69q0 64 78 64zM723 928h-287l-51 -332h289z" />
<glyph unicode="$" horiz-adv-x="1153" d="M387 1577v78q0 66 43 65.5t43 -61.5v-82q94 -2 213 -53t119 -129q0 -72 -70 -72q-23 0 -113 50t-149 54v-516q186 -61 306 -179t120 -288q0 -178 -127 -311t-299 -133q0 -49 2 -100q0 -55 -43 -56q-47 0 -49 62l4 94q-109 8 -227.5 51t-118.5 109q0 37 20.5 60.5t53 23.5 t126 -45t146.5 -49v612q-166 43 -276.5 146.5t-110.5 254.5q0 160 114.5 275.5t272.5 138.5zM473 729v-588q109 20 182.5 102.5t73.5 190.5q0 209 -256 295zM387 944v483q-98 -18 -158.5 -84.5t-60.5 -152.5q0 -90 64.5 -154.5t154.5 -91.5z" />
<glyph unicode="%" horiz-adv-x="1691" d="M1104 756q152 0 243 -114t91 -271q0 -160 -89 -265.5t-245 -105.5q-158 0 -252 111.5t-94 273.5q0 160 94 265.5t252 105.5zM1104 115q98 0 151.5 74.5t53.5 179t-55.5 187.5t-149.5 83q-96 0 -151.5 -78t-55.5 -182q0 -109 53.5 -186.5t153.5 -77.5zM342 815 q-154 0 -248 114.5t-94 274.5t93 263.5t249 103.5q154 0 247 -110.5t93 -268.5q0 -160 -92 -268.5t-248 -108.5zM342 932q98 0 153.5 75.5t55.5 182.5q0 111 -57.5 187.5t-151.5 76.5q-96 0 -149.5 -77t-53.5 -181t53.5 -184t149.5 -80zM375 72l557 1429q25 61 80 62 q27 0 44 -19.5t17 -46.5t-12 -53l-572 -1444q-10 -31 -65 -31q-23 0 -39 19.5t-16 50.5q0 19 6 33z" />
<glyph unicode="&#x26;" horiz-adv-x="1544" d="M504 1018q166 127 166 258q0 78 -44 118t-105.5 40t-107.5 -40t-46 -112q0 -139 137 -264zM1155 20l-188 201q-176 -264 -455 -264q-236 0 -374 132t-138 337q0 287 360 518q-150 156 -149 309q0 147 94 232.5t219 85.5q121 0 206 -81t85 -233q0 -170 -217 -346l385 -438 l123 205q45 80 102 80q31 0 50.5 -18.5t19.5 -47.5q0 -47 -31 -96l-166 -250l191 -209q18 -23 18 -49q0 -35 -23.5 -61.5t-54.5 -26.5q-34 0 -57 20zM885 338l-441 489q-295 -195 -294 -403q0 -135 111.5 -228.5t252.5 -93.5q228 0 371 236z" />
<glyph unicode="'" horiz-adv-x="559" d="M295 1448l-133 -301q-25 -55 -80 -55q-31 0 -56.5 20.5t-25.5 48.5q0 16 4 29l125 309q31 76 92 76q33 0 58.5 -24.5t25.5 -59.5q0 -18 -10 -43z" />
<glyph unicode="(" horiz-adv-x="624" d="M291 1526q29 23 57.5 22.5t48 -20t19.5 -45.5q0 -29 -25 -58q-248 -293 -248 -714q0 -211 61.5 -411t192.5 -335q18 -27 18.5 -55.5t-18 -47t-47.5 -18.5q-35 0 -63 29q-145 145 -216 375.5t-71 472.5q0 488 291 805z" />
<glyph unicode=")" horiz-adv-x="624" d="M123 1526q291 -317 291 -805q0 -242 -71 -472.5t-216 -375.5q-29 -29 -64 -29q-29 0 -47 18.5t-18 47.5t18 55q131 135 192.5 335t61.5 411q0 422 -247 714q-25 29 -25 58q0 27 19.5 46t48 19.5t57.5 -22.5z" />
<glyph unicode="*" horiz-adv-x="1280" d="M303 1268q-27 25 -27 53q0 23 18.5 41t43.5 18q6 0 22 -4l205 -133l-12 240q12 57 61 57q47 0 62 -51l-14 -246l194 125q16 10 37 10q23 0 41 -17.5t18 -41.5q0 -31 -30 -55l-213 -107l209 -102q35 -18 34 -56q0 -25 -17 -42t-44 -17q-14 0 -31 6l-198 119l14 -219 q0 -33 -18.5 -50.5t-43.5 -17.5q-23 0 -41 16.5t-20 45.5l10 225l-198 -123q-16 -4 -27 -4q-25 0 -43.5 17.5t-18.5 41.5q0 27 23 50l211 110z" />
<glyph unicode="+" horiz-adv-x="1280" d="M143 645h373v375q0 41 22.5 64.5t61.5 23.5q35 0 59.5 -25.5t24.5 -62.5v-375h373q47 0 73.5 -22.5t26.5 -59.5q0 -90 -100 -90h-373v-387q0 -35 -23.5 -60.5t-58.5 -25.5q-39 0 -62.5 23.5t-23.5 62.5v387h-373q-92 0 -92 88q0 84 92 84z" />
<glyph unicode="," horiz-adv-x="557" d="M299 131l-156 -360q-20 -51 -67 -52q-29 0 -52.5 22.5t-23.5 53.5q0 12 6 27l137 334q29 66 84 65q31 0 53.5 -20.5t22.5 -48.5q0 -9 -4 -21z" />
<glyph unicode="-" horiz-adv-x="823" d="M96 645h422q88 0 88 -80q0 -76 -88 -76h-422q-90 0 -90 76q0 33 24.5 56.5t65.5 23.5z" />
<glyph unicode="." horiz-adv-x="468" d="M0 102q0 43 29.5 73t72.5 30t73 -30t30 -73t-30 -72.5t-73 -29.5t-72.5 29.5t-29.5 72.5z" />
<glyph unicode="/" horiz-adv-x="1280" d="M272 72l557 1429q25 61 80 62q27 0 44.5 -19.5t17.5 -46.5t-13 -53l-571 -1444q-10 -31 -65 -31q-23 0 -39.5 19.5t-16.5 50.5q0 19 6 33z" />
<glyph unicode="0" horiz-adv-x="1214" d="M506 1571h8q133 0 234.5 -76t155.5 -200t81 -256t27 -267q0 -131 -28 -263t-84 -256t-157.5 -201t-232.5 -77q-137 0 -240.5 74t-159 196t-82 254t-26.5 269q0 133 27.5 266t83 258t158 202t235.5 77zM510 133q88 0 155.5 65.5t104.5 166t54.5 202t17.5 193.5 q0 106 -17.5 213.5t-54.5 208t-103.5 164t-154.5 63.5q-94 0 -165 -66.5t-106.5 -171t-52 -207t-16.5 -200.5q0 -100 19.5 -204.5t57.5 -203t105.5 -161t155.5 -62.5z" />
<glyph unicode="1" horiz-adv-x="757" d="M295 88v1253l-201 -57q-20 -4 -26 -4q-31 0 -51.5 18.5t-20.5 49.5q0 66 76 86q305 86 313 86q49 0 66 -41q10 -20 10 -105v-1286q0 -39 -22.5 -63.5t-59.5 -24.5q-39 0 -61.5 24.5t-22.5 63.5z" />
<glyph unicode="2" horiz-adv-x="1077" d="M-4 1143q0 188 133 305t307 117q168 0 297 -108.5t129 -276.5q0 -197 -145 -389l-484 -635h576q76 0 76 -76q0 -80 -78 -80h-678q-113 0 -113 74q0 37 31 76l557 757q90 123 90 258q0 109 -79.5 175.5t-186.5 66.5q-109 0 -186.5 -72.5t-77.5 -201.5q0 -35 -21.5 -67 t-60.5 -32t-62.5 34t-23.5 75z" />
<glyph unicode="3" horiz-adv-x="1071" d="M387 1571q182 0 294 -117t112 -287q0 -195 -170 -340q115 -72 173 -178t58 -223q0 -182 -127 -316.5t-336 -134.5q-117 0 -213 52.5t-151 132.5q-51 74 -52 145q0 39 20.5 60.5t49.5 21.5q53 0 76 -53q84 -195 268 -195q123 0 210 77t87 214q0 109 -62.5 195t-177.5 104 q-25 4 -118 4q-94 2 -94.5 76t92.5 74q96 0 116 4q86 16 134.5 98t48.5 178q0 115 -65.5 184.5t-182.5 69.5q-88 0 -151.5 -59.5t-63.5 -145.5q0 -102 -78 -102q-88 0 -88 109q0 135 113.5 243.5t277.5 108.5z" />
<glyph unicode="4" horiz-adv-x="1234" d="M688 96v291h-584q-51 0 -79.5 27.5t-28.5 68.5q0 43 27 78l534 862q59 96 158 97q57 0 94 -40t37 -108v-829h98q76 0 76 -82q0 -72 -68 -72h-106v-293q0 -96 -78 -96q-80 0 -80 96zM688 1348l-500 -805h500v805z" />
<glyph unicode="5" horiz-adv-x="1116" d="M348 1516h438q35 0 55.5 -26t20.5 -63q0 -78 -76 -77h-421l-68 -396q68 16 156 17q219 0 340.5 -141.5t121.5 -337.5q0 -207 -133 -362t-372 -155q-170 0 -297 85t-127 173q0 35 19.5 54.5t45.5 19.5q39 0 64 -35q49 -63 135 -103t170 -40q143 0 237.5 104.5t94.5 239.5 q0 139 -89.5 242.5t-248.5 103.5q-57 0 -115.5 -17.5t-87.5 -17.5q-84 0 -84 76q0 18 104 574q15 82 117 82z" />
<glyph unicode="6" horiz-adv-x="1110" d="M653 1391q-127 -119 -242.5 -267.5t-166.5 -253.5q92 109 280 109q170 0 291 -137t121 -346q0 -213 -131 -367t-340 -154q-217 0 -340 161t-123 386q0 268 145.5 516t372.5 453q33 31 70 31t61.5 -21.5t24.5 -60.5q0 -26 -23 -49zM473 127q141 10 224 116.5t83 245.5 q0 137 -83 237.5t-236 100.5q-145 0 -222 -99t-77 -236q0 -145 85 -255t226 -110z" />
<glyph unicode="7" horiz-adv-x="1110" d="M90 1518h725q39 0 66.5 -27t27.5 -68q0 -25 -12 -55l-543 -1284q-37 -84 -98 -84q-72 0 -72 80q0 29 11 49l520 1223h-625q-94 0 -94 84q0 82 94 82z" />
<glyph unicode="8" horiz-adv-x="1103" d="M252 836q-199 123 -199 348q0 160 118 268.5t284 108.5q168 0 279.5 -105.5t111.5 -271.5q0 -199 -199 -336q121 -57 191.5 -168t70.5 -242q0 -190 -131 -326.5t-321 -136.5q-205 0 -333 132.5t-128 336.5q0 125 72.5 233t183.5 159zM457 758q-125 0 -207 -91.5 t-82 -215.5q0 -133 80 -223.5t209 -90.5q125 0 202.5 90t77.5 219q0 131 -80.5 221.5t-199.5 90.5zM457 911q100 0 158.5 78t58.5 185q0 109 -65.5 172t-158 63t-163 -63.5t-70.5 -172t67 -185.5t173 -77z" />
<glyph unicode="9" horiz-adv-x="1124" d="M725 629q-100 -90 -262 -90q-215 0 -342 155.5t-127 364.5t127 359.5t356 150.5q217 0 347 -159t130 -402q0 -154 -43 -309.5t-171 -352t-330 -360.5q-27 -23 -64 -23q-31 0 -51.5 18.5t-20.5 47.5q0 45 39 80q139 121 258 272.5t154 247.5zM471 1411 q-152 0 -233.5 -111.5t-81.5 -250.5q0 -164 93 -260.5t224 -96.5q141 0 233.5 90t92.5 262q0 145 -84 256t-244 111z" />
<glyph unicode=":" horiz-adv-x="464" d="M0 102q0 43 29.5 73t72.5 30t73 -30t30 -73t-30 -72.5t-73 -29.5t-72.5 29.5t-29.5 72.5zM0 819q0 43 29.5 73t72.5 30t73 -30t30 -73t-30 -72.5t-73 -29.5t-72.5 29.5t-29.5 72.5z" />
<glyph unicode=";" horiz-adv-x="557" d="M102 819q0 43 30 73t73 30t72.5 -30t29.5 -73t-29.5 -72.5t-72.5 -29.5t-73 29.5t-30 72.5zM299 131q4 12 4 21q0 29 -22.5 49t-53.5 20q-55 0 -84 -65l-137 -334q-6 -14 -6 -27q0 -31 23.5 -53.5t52.5 -22.5q47 0 67 52z" />
<glyph unicode="&#x3c;" horiz-adv-x="1331" d="M1108 965l-844 -406l828 -401q78 -37 77 -88q0 -31 -18 -49.5t-51 -18.5q-31 0 -80 23l-909 452q-72 35 -72 94q0 57 72 93l931 434q41 16 70 16q27 0 45.5 -18.5t18.5 -46.5q0 -51 -68 -84z" />
<glyph unicode="=" horiz-adv-x="1280" d="M127 877h963q76 0 75 -78q0 -72 -75 -72h-963q-74 0 -74 78q0 72 74 72zM1090 303h-963q-74 0 -74 74q0 76 74 76h963q76 0 75 -74q1 -76 -75 -76z" />
<glyph unicode="&#x3e;" horiz-adv-x="1331" d="M950 559l-844 406q-68 33 -67 84q0 29 18.5 47t44.5 18q29 0 70 -16l932 -434q72 -35 72 -93q0 -59 -72 -94l-909 -452q-49 -23 -80 -23q-33 0 -51.5 18.5t-18.5 49.5q0 51 78 88z" />
<glyph unicode="?" horiz-adv-x="1017" d="M205 102q0 43 29.5 73t72.5 30t73 -30t30 -73t-30 -72.5t-73 -29.5t-72.5 29.5t-29.5 72.5zM618 1153q0 104 -62 159.5t-148 55.5q-78 0 -136.5 -53t-66.5 -133q-4 -41 -25.5 -64.5t-50.5 -23.5q-31 0 -52.5 24.5t-21.5 69.5q0 154 110.5 244t252.5 90q150 0 254 -97.5 t104 -269.5q0 -96 -40 -199.5t-113.5 -204t-135 -171t-145.5 -154.5q-31 -27 -59 -27q-33 0 -53.5 20.5t-20.5 55.5q0 31 45 76q111 113 177.5 189.5t126.5 193.5t60 219z" />
<glyph unicode="@" horiz-adv-x="1798" d="M963 1098q10 88 67 88q70 0 70 -99v-423q0 -164 86 -164q78 0 125 100t47 295q0 250 -155.5 399.5t-397.5 149.5q-293 0 -460 -195.5t-167 -505.5q0 -285 173 -459.5t429 -174.5q340 0 498 176q39 41 76 41q25 0 41 -14.5t16 -39.5q0 -43 -27 -71q-106 -119 -274 -173.5 t-340 -54.5q-311 0 -523 210t-212 556q0 369 207 604.5t565 235.5q307 0 497.5 -179t190.5 -495q0 -233 -85 -388t-218 -155q-111 0 -205 117q-104 -115 -237 -114q-166 0 -255 116.5t-89 280.5q0 172 95 299t263 127q109 0 199 -90zM950 610v357q-76 82 -162 82 q-109 0 -173 -86t-64 -201q0 -104 55.5 -180t159.5 -76q121 0 184 104z" />
<glyph unicode="A" horiz-adv-x="1388" d="M592 1307l-307 -840h606zM1053 49l-107 262h-704l-84 -233q-29 -78 -92 -78q-66 0 -66 72q0 16 8 41l463 1310q33 92 119 92.5t119 -92.5l479 -1310q8 -18 8 -43q0 -70 -70 -70q-55 0 -73 49z" />
<glyph unicode="B" horiz-adv-x="1241" d="M0 100v1317q0 98 84 99h395q70 0 141.5 -20.5t140 -60.5t111.5 -114t43 -166q0 -111 -65.5 -202t-165.5 -122q141 -23 245.5 -139.5t104.5 -265.5q0 -184 -128 -305t-306 -121h-481q-68 0 -90 16q-29 18 -29 84zM152 741v-591h387q139 0 232 72.5t93 201.5 q0 147 -117.5 232t-279.5 85h-315zM152 881h266q133 0 235.5 61.5t102.5 181.5q0 109 -87 175.5t-202 66.5h-315v-485z" />
<glyph unicode="C" horiz-adv-x="1449" d="M1040 276q23 23 52 23q74 0 73 -76q0 -47 -30 -76q-195 -170 -439 -170q-168 0 -304 67t-221 179.5t-129 250.5t-44 290q0 154 46 296t132 257t224.5 184.5t308.5 69.5q252 0 432 -168q39 -33 39 -74q0 -37 -21.5 -59.5t-52.5 -22.5q-39 0 -64 25q-133 133 -340 133 q-172 0 -297.5 -93t-183 -232.5t-57.5 -301.5q0 -258 144.5 -450.5t396.5 -192.5q194 0 335 141z" />
<glyph unicode="D" horiz-adv-x="1349" d="M0 84v1333q0 98 119 99h405q193 0 335 -115t209 -285t67 -364q0 -301 -181.5 -526.5t-470.5 -225.5h-397q-51 0 -68.5 16.5t-17.5 67.5zM502 1366h-350v-1216h321q231 0 365.5 179t134.5 423q0 162 -51.5 298t-160.5 226t-259 90z" />
<glyph unicode="E" horiz-adv-x="1007" d="M0 92v1331q0 92 84 93h623q76 0 75 -76q0 -74 -75 -74h-557v-504h458q76 0 76 -78q0 -72 -76 -71h-458v-563h573q88 0 88 -76q0 -74 -88 -74h-639q-53 0 -68.5 17.5t-15.5 74.5z" />
<glyph unicode="F" horiz-adv-x="927" d="M0 61v1356q0 98 84 99h604q76 0 76 -76q0 -74 -76 -74h-536v-541h405q76 0 76 -77q0 -74 -76 -74h-405v-613q0 -61 -78 -61q-74 0 -74 61z" />
<glyph unicode="G" horiz-adv-x="1470" d="M1118 717h-420q-90 0 -90 74q0 76 97 75h444q80 0 105.5 -48t25.5 -134q0 -299 -169 -503t-443 -204q-162 0 -293 71t-211 187.5t-122 257t-42 289.5q0 164 44 307.5t129 254t219 174t304 63.5q117 0 243 -48t214 -140q35 -35 35 -68t-21.5 -59.5t-58.5 -26.5 q-35 0 -72 33q-160 145 -348 145q-252 0 -386 -174t-134 -459q0 -162 54 -306t173 -243.5t281 -99.5q209 0 329.5 158t120.5 393q0 29 -8 31z" />
<glyph unicode="H" horiz-adv-x="1386" d="M0 74v1370q0 76 74 76q76 0 76 -76v-598h845v598q0 76 74 76q78 0 78 -76v-1370q0 -74 -78 -74q-74 0 -74 74v620h-845v-620q0 -74 -74 -74q-76 0 -76 74z" />
<glyph unicode="I" horiz-adv-x="391" d="M0 76v1368q0 76 74 76q76 0 76 -76v-1368q0 -76 -76 -76q-74 0 -74 76z" />
<glyph unicode="J" horiz-adv-x="882" d="M645 1444v-1139q0 -152 -95 -242t-247 -90q-164 0 -278 103q-25 23 -25 57q0 78 70 78q16 0 85.5 -47t149.5 -47q88 0 137.5 50t49.5 138v1139q0 76 75 76q78 0 78 -76z" />
<glyph unicode="K" horiz-adv-x="1214" d="M0 66v1390q0 63 74 64q78 0 78 -64v-747l714 788q16 18 47 19q33 0 58.5 -26t25.5 -56q0 -29 -20 -48l-440 -481l475 -772q25 -23 24 -59q0 -33 -27.5 -54.5t-47.5 -21.5q-39 0 -70 35l-465 760l-274 -289v-438q0 -66 -74 -66q-78 0 -78 66z" />
<glyph unicode="L" horiz-adv-x="1052" d="M0 117v1327q0 76 74 76q76 0 76 -76v-1294h657q76 0 76 -74q0 -76 -76 -76h-707q-100 0 -100 117z" />
<glyph unicode="M" horiz-adv-x="1859" d="M479 1386l336 -1116l344 1116q41 133 147.5 133.5t127.5 -149.5l190 -1278q0 -2 1 -8t1 -8q0 -33 -21.5 -53.5t-54.5 -20.5q-70 0 -82 82l-174 1243l-399 -1239q-27 -88 -84 -88t-84 88l-385 1241l-188 -1243q-12 -84 -82 -84q-72 0 -72 70q0 16 2 24l203 1274 q25 154 131 154q104 -1 143 -138z" />
<glyph unicode="N" horiz-adv-x="1368" d="M0 78v1352q0 90 74 90q57 0 106 -74l799 -1176v1170q0 78 74 78q76 0 75 -78v-1350q0 -90 -73 -90q-59 0 -103 61l-802 1172v-1155q0 -78 -74 -78q-76 0 -76 78z" />
<glyph unicode="O" horiz-adv-x="1529" d="M651 1567q211 0 364.5 -118t225.5 -295t72 -384q0 -205 -72 -381t-225.5 -292.5t-364.5 -116.5q-207 0 -358.5 117.5t-222 295.5t-70.5 383q0 152 42 291t120 252t204.5 180.5t284.5 67.5zM651 1413q-158 0 -273.5 -93t-167.5 -233.5t-52 -306.5q0 -170 54 -315.5 t170 -241.5t273 -96q160 0 277 94t169 234.5t52 308.5q0 264 -132 456.5t-370 192.5z" />
<glyph unicode="P" horiz-adv-x="1241" d="M0 76v1360q0 82 84 82h434q213 0 357.5 -130.5t144.5 -334.5q0 -193 -143.5 -325t-346.5 -132h-380v-520q0 -76 -74 -76q-76 0 -76 76zM489 1368h-339v-623h372q145 0 243.5 85t98.5 225q0 145 -103.5 229t-271.5 84z" />
<glyph unicode="Q" horiz-adv-x="1552" d="M651 1567q211 0 364.5 -118t225.5 -295t72 -384q0 -274 -129 -487q16 -16 139 -154q23 -27 23 -55.5t-18.5 -50t-51.5 -21.5q-29 0 -47 18l-142 144q-193 -184 -436 -184q-207 0 -358.5 117.5t-222 295.5t-70.5 383q0 152 42 291t120 252t204.5 180.5t284.5 67.5z M653 1413q-158 0 -273.5 -93t-167.5 -233.5t-52 -306.5q0 -170 54 -315.5t170 -241.5t273 -96q199 0 340 141l-114 107q-29 29 -29 59q0 37 24.5 62.5t57.5 25.5q31 0 53 -22l98 -99q68 147 68 363q0 264 -132 456.5t-370 192.5z" />
<glyph unicode="R" horiz-adv-x="1259" d="M0 92v1344q0 82 117 82h471q217 0 342 -127t125 -299q0 -133 -81 -243t-235 -151l287 -561q18 -37 18 -71q0 -68 -65 -68q-49 0 -70 41l-329 627h-430v-574q0 -92 -74 -92q-76 0 -76 92zM604 1368h-454v-553h454q141 0 218 79t77 191.5t-79 197.5t-216 85z" />
<glyph unicode="S" horiz-adv-x="1122" d="M727 1319q-115 72 -289 72q-104 0 -182 -75t-78 -181q0 -27 8.5 -51.5t32 -50t40.5 -42t60 -42.5l63 -37q19 -11 74 -40l72 -38l95 -53q25 -13 84 -50t84 -63l58 -67q34 -40 47 -85t13 -96q0 -213 -140 -329t-361 -116q-195 0 -353 103q-55 37 -55 90q0 70 70 70 q35 0 71 -25q127 -78 272.5 -78t237.5 67.5t92 207.5q0 43 -22.5 81.5t-74.5 76.5t-92 61.5t-118 64.5q-104 55 -155.5 85t-127 87.5t-109.5 121t-34 138.5q0 195 131 309.5t330 114.5q174 0 348 -94q57 -33 58 -94q0 -33 -20.5 -56.5t-51.5 -23.5q-21 0 -78 37z" />
<glyph unicode="T" horiz-adv-x="1087" d="M383 86v1282h-301q-82 0 -82 74q0 76 82 76h756q78 0 77 -76q0 -74 -77 -74h-303v-1282q0 -86 -74 -86q-78 0 -78 86z" />
<glyph unicode="U" horiz-adv-x="1396" d="M0 584v846q0 88 84 88q82 0 82 -88v-830q0 -457 426 -457q190 0 296.5 102.5t106.5 354.5v830q0 88 84 88t84 -88v-846q0 -164 -47 -285t-131 -189.5t-186.5 -100.5t-225.5 -32q-258 0 -415.5 145t-157.5 462z" />
<glyph unicode="V" horiz-adv-x="1351" d="M158 1460l422 -1206l417 1206q23 59 72 60q33 0 61.5 -26t28.5 -58q0 -12 -6 -25l-457 -1284q-47 -127 -116 -127q-63 0 -105 109l-469 1302q-6 18 -6 37q0 74 78 74q57 -1 80 -62z" />
<glyph unicode="W" horiz-adv-x="1853" d="M158 1444l211 -1239l348 1237q23 78 108 78q84 0 107 -78l338 -1235l205 1233q12 84 84 84q33 0 56 -22.5t23 -57.5q0 -12 -2 -19l-237 -1321q-8 -47 -45 -75.5t-84 -28.5q-98 0 -125 94l-324 1186l-321 -1153q-18 -66 -55 -98.5t-80 -32.5q-45 0 -82 32.5t-47 88.5 l-234 1308q-2 6 -2 19q0 35 22.5 55.5t55.5 20.5q68 0 80 -76z" />
<glyph unicode="X" horiz-adv-x="1355" d="M25 127l454 707l-401 565q-18 27 -19 51q0 31 20.5 50.5t51.5 19.5q41 0 68 -37l374 -514l330 512q25 37 64 37q29 0 51 -21.5t22 -52.5q0 -25 -16 -47l-369 -545l480 -721q29 -45 28 -76q0 -57 -59 -57q-45 0 -78 45l-461 670l-428 -668q-31 -47 -78 -47q-59 0 -59 59 q0 33 25 70z" />
<glyph unicode="Y" horiz-adv-x="1163" d="M403 88v625l-389 682q-14 27 -14 53q0 72 68 72q39 0 63 -43l358 -598l351 594q29 47 73 47q68 0 68 -66q0 -20 -12 -43l-412 -698v-625q0 -88 -76 -88q-78 0 -78 88z" />
<glyph unicode="Z" horiz-adv-x="1228" d="M23 166l796 1202h-713q-78 0 -77 74q0 76 77 76h824q102 0 102 -66q0 -37 -41 -100l-796 -1202h784q80 0 80 -72q0 -78 -80 -78h-907q-72 0 -72 86q0 45 23 80z" />
<glyph unicode="[" horiz-adv-x="552" d="M0 -27v1479q0 100 84 100h149q66 0 66 -73q0 -61 -63 -62h-86v-1413h86q63 0 63 -61q0 -70 -66 -70h-149q-84 0 -84 100z" />
<glyph unicode="\" horiz-adv-x="970" d="M156 1468l557 -1396q4 -12 4 -23q0 -27 -19.5 -45t-48.5 -18q-59 0 -88 69l-555 1397q-6 14 -6 31q0 31 22.5 48t57.5 17q29 0 43.5 -18.5t32.5 -61.5z" />
<glyph unicode="]" horiz-adv-x="552" d="M150 4v1399q-6 0 -35 -1t-52 -1q-63 0 -63 65q0 70 63 70h154q82 0 82 -100v-1463q0 -100 -82 -100h-154q-63 0 -63 76q0 55 53 55h97z" />
<glyph unicode="^" horiz-adv-x="1280" d="M702 1485l441 -807q16 -33 16 -62q0 -70 -76 -69q-51 0 -96 82l-369 690l-389 -690q-27 -47 -43 -64.5t-47 -17.5q-33 0 -56.5 17.5t-23.5 49.5q0 29 19 64l457 807q27 51 83.5 51t83.5 -51z" />
<glyph unicode="_" horiz-adv-x="1091" d="M1022 -262h-1022q-76 0 -76 67.5t76 67.5h1022q80 0 80 -70q0 -65 -80 -65z" />
<glyph unicode="`" horiz-adv-x="559" d="M301 1448l-139 -315q-31 -72 -74 -72q-39 0 -64.5 20.5t-25.5 48.5q0 18 8 35l137 320q27 57 78 57q37 0 60.5 -19.5t23.5 -54.5q0 -8 -4 -20z" />
<glyph unicode="a" d="M152 1104q150 61 340 61q197 0 306 -104.5t109 -265.5v-736q0 -31 -20.5 -53t-55 -22t-54 21.5t-21.5 51.5q-2 39 -2 70q-133 -143 -351 -143q-162 0 -277.5 89t-115.5 253q0 170 130 266t304 96q207 0 310 -102v194q0 106 -82 171t-226 65q-76 0 -168 -24.5t-114 -24.5 q-70 0 -70 63q1 49 58 74zM164 338q0 -104 76.5 -157.5t189.5 -53.5q125 0 223.5 61.5t98.5 161.5q0 88 -93.5 142.5t-214.5 54.5q-117 0 -198.5 -54.5t-81.5 -154.5z" />
<glyph unicode="b" horiz-adv-x="1179" d="M0 61v1457q0 80 76 79.5t76 -79.5v-580q33 96 133 166t204 70q223 0 350.5 -182.5t127.5 -424.5q0 -154 -51.5 -285.5t-163 -219t-263.5 -87.5q-111 0 -202.5 53.5t-134.5 149.5v-119q0 -37 -23 -59.5t-55 -22.5q-74 0 -74 84zM500 119q82 0 143.5 40t96 105.5t52 141 t17.5 157.5q0 111 -28.5 211t-101.5 176t-179 76q-166 0 -253 -137t-87 -318q0 -182 87 -317t253 -135z" />
<glyph unicode="c" horiz-adv-x="1064" d="M543 1001q-166 0 -276.5 -122.5t-110.5 -319.5q0 -180 115.5 -308t277.5 -128q127 0 229 70q10 8 27 8q23 0 42 -19.5t19 -46.5q0 -37 -49 -76q-125 -82 -272 -82q-231 0 -388 170t-157 422q0 254 157.5 416t383.5 162q145 0 243 -45q70 -31 70 -74q0 -35 -18.5 -56.5 t-49.5 -21.5q-8 0 -20 4q-110 47 -223 47z" />
<glyph unicode="d" horiz-adv-x="1191" d="M809 983v537q0 80 78 79q74 0 74 -79v-1481q0 -68 -74 -68q-78 0 -78 70v137q-131 -205 -334 -205q-227 0 -351 172t-124 414q0 154 51 290t162 230.5t262 94.5q100 0 195.5 -50.5t138.5 -140.5zM473 111q135 0 237.5 125.5t102.5 330.5q0 207 -99.5 332t-232.5 125 q-152 0 -237.5 -139.5t-85.5 -327.5q0 -182 82.5 -314t232.5 -132z" />
<glyph unicode="e" horiz-adv-x="1236" d="M496 1176q223 0 348 -141.5t125 -370.5q0 -90 -23.5 -128t-91.5 -38h-692q0 -137 114.5 -254t251.5 -117q88 0 149.5 22.5t129.5 81.5q41 37 88 37q68 0 68 -69q0 -27 -15 -41q-145 -182 -420 -183q-244 0 -386 172t-142 426q0 242 134.5 422.5t361.5 180.5zM164 645h653 q0 162 -86 270.5t-229 108.5q-145 0 -241.5 -111.5t-96.5 -267.5z" />
<glyph unicode="f" horiz-adv-x="704" d="M180 74v907h-96q-84 0 -84 74q0 80 84 80h96q0 188 69.5 286.5t229.5 98.5q90 0 90 -72q0 -68 -90 -68q-84 0 -116.5 -59t-32.5 -186q66 0 131 2q84 0 84 -78q0 -80 -88 -80h-127v-905q0 -74 -76 -74q-74 0 -74 74z" />
<glyph unicode="g" horiz-adv-x="1198" d="M158 580q0 -215 101 -338t236.5 -123t231.5 119.5t96 334.5q0 211 -99 331t-235 120q-133 0 -232 -117.5t-99 -326.5zM817 981v131q0 68 74 68q78 0 78 -72v-1030q0 -256 -144.5 -398.5t-347.5 -142.5q-215 0 -360 92q-41 27 -41 76q0 33 20.5 56.5t53.5 23.5 q25 0 77 -31q115 -63 244 -63q150 0 248 94t98 274v105q-37 -94 -126 -140.5t-191 -46.5q-233 0 -366.5 177.5t-133.5 423.5q0 244 133 420t367 176q94 0 189 -57.5t128 -135.5z" />
<glyph unicode="h" horiz-adv-x="1077" d="M0 74v1446q0 80 74 79q76 0 76 -79v-525q100 176 301 176q158 0 281.5 -110.5t123.5 -278.5v-708q0 -74 -76 -74q-74 0 -73 74v643q0 145 -81 226t-194 81q-115 0 -198.5 -82t-83.5 -225v-643q0 -74 -76 -74q-74 0 -74 74z" />
<glyph unicode="i" horiz-adv-x="471" d="M31 76v1011q0 76 75 76q80 0 80 -76v-1011q0 -76 -77.5 -76t-77.5 76zM0 1505q0 43 29.5 73t72.5 30t73 -30t30 -73t-30 -72.5t-73 -29.5t-72.5 29.5t-29.5 72.5z" />
<glyph unicode="j" horiz-adv-x="430" d="M0 1505q0 43 29.5 73t72.5 30t73 -30t30 -73t-30 -72.5t-73 -29.5t-72.5 29.5t-29.5 72.5zM180 -106v1193q0 74 -76 74q-78 0 -77 -74v-1193q0 -135 -28 -190.5t-122 -55.5q-90 0 -90 -68q0 -72 90 -72q172 0 237.5 95.5t65.5 290.5z" />
<glyph unicode="k" horiz-adv-x="1048" d="M-2 74v1448q0 76 78 75q76 0 76 -75v-953l583 551q23 18 51 19q33 0 55.5 -19.5t22.5 -50.5t-43 -74l-327 -307l376 -530q33 -55 33 -86q0 -37 -20.5 -56.5t-48.5 -19.5q-51 0 -78 45l-381 543l-223 -203v-307q0 -74 -78 -74q-76 0 -76 74z" />
<glyph unicode="l" horiz-adv-x="419" d="M0 76v1448q0 78 74 78q78 0 78 -78v-1448q0 -76 -76 -76t-76 76z" />
<glyph unicode="m" horiz-adv-x="1722" d="M0 78v987q0 90 76 90t76 -84v-80q41 82 123.5 132.5t173.5 50.5q100 0 185 -59.5t124 -156.5q49 96 147.5 156t212.5 60q160 0 271.5 -102.5t111.5 -260.5v-733q0 -74 -76 -74q-78 0 -77 74v667q0 115 -64.5 193t-173.5 78q-127 0 -207 -94.5t-80 -227.5v-616 q0 -76 -73 -76q-76 0 -76 76v667q0 115 -65.5 191t-174.5 76q-127 0 -205.5 -92.5t-78.5 -225.5v-616q0 -76 -74 -76q-76 0 -76 76z" />
<glyph unicode="n" horiz-adv-x="1079" d="M0 74v999q0 80 74 80q76 0 76 -80v-78q98 178 307 179q158 0 278.5 -109t120.5 -283v-708q0 -74 -76 -74q-74 0 -73 74v643q0 145 -81 226t-194 81q-115 0 -198.5 -82t-83.5 -225v-643q0 -74 -76 -74q-74 0 -74 74z" />
<glyph unicode="o" horiz-adv-x="1208" d="M496 1174q156 0 271.5 -91.5t169.5 -227.5t54 -294q0 -244 -132 -414t-363.5 -170t-363.5 176.5t-132 422t132.5 422t363.5 176.5zM496 1026q-166 0 -251 -129t-85 -307q0 -180 87 -325.5t249 -145.5q164 0 251 127t87 303q0 111 -35 216t-114.5 183t-188.5 78z" />
<glyph unicode="p" horiz-adv-x="1179" d="M0 -387v1481q0 80 76 80t76 -80v-156q33 96 133 166t204 70q223 0 350.5 -182.5t127.5 -424.5q0 -154 -51.5 -285.5t-163 -219t-263.5 -87.5q-111 0 -202.5 53.5t-134.5 149.5v-567q0 -37 -23 -59.5t-55 -22.5q-74 0 -74 84zM504 115q82 0 143.5 40t96 105.5t52 141 t17.5 157.5q0 111 -28.5 211t-101.5 176t-179 76q-166 0 -253 -137t-87 -318q0 -182 87 -317t253 -135z" />
<glyph unicode="q" horiz-adv-x="1189" d="M809 983v111q0 80 78 80q74 0 74 -80v-1497q0 -68 -74 -68q-78 0 -78 70v579q-131 -205 -334 -205q-227 0 -351 172t-124 414q0 154 51 290t162 230.5t262 94.5q100 0 195.5 -50.5t138.5 -140.5zM471 113q135 0 237.5 126t102.5 330q0 207 -99.5 332t-232.5 125 q-152 0 -237.5 -139t-85.5 -328q0 -182 82.5 -314t232.5 -132z" />
<glyph unicode="r" horiz-adv-x="858" d="M0 74v999q0 80 74 80q76 0 76 -80v-98q55 98 151 148.5t207 50.5q76 0 112.5 -28t36.5 -67q0 -33 -22.5 -56.5t-56.5 -23.5q-27 0 -65 7.5t-75 7.5q-102 0 -195 -91.5t-93 -205.5v-643q0 -74 -76 -74q-74 0 -74 74z" />
<glyph unicode="s" horiz-adv-x="1032" d="M143 221q139 -92 283 -92q98 0 175 44t77 134q0 113 -236 197q-88 33 -145 58.5t-127 66.5t-104.5 93t-34.5 114q0 164 117.5 248.5t293.5 84.5q182 0 318 -73q39 -20 39 -72q0 -35 -19.5 -53.5t-50.5 -18.5q-25 0 -45 13q-92 53 -246 53q-102 0 -173.5 -40t-71.5 -124 q0 -20 8 -37.5t27.5 -34t38 -29t53 -28.5l56 -25.5t65.5 -26.5l65 -26l102 -44q35 -15 88.5 -47t80 -61.5t48 -74.5t21.5 -98q0 -174 -125 -259.5t-299 -85.5q-188 0 -379 121q-27 18 -27 62q0 84 68 84q26 0 59 -23z" />
<glyph unicode="t" horiz-adv-x="794" d="M139 1133v167q0 74 74 74q76 0 76 -74v-167h180q80 0 80 -70t-76 -70h-184v-626q0 -137 27.5 -191.5t121.5 -54.5q90 0 90 -68q0 -72 -90 -71q-172 0 -235.5 95t-63.5 290v628h-65q-74 0 -74 70q0 68 63 68h76z" />
<glyph unicode="u" horiz-adv-x="1083" d="M152 1071l2 -575q0 -113 20.5 -191t59 -115.5t81.5 -52t99 -14.5q127 0 224 121t97 323v512q0 80 70 80q74 0 74 -80v-1040q0 -68 -74 -68q-78 0 -78 70v137q-129 -213 -332 -213q-168 0 -280.5 114t-112.5 351v641q0 76 74 76q76 0 76 -76z" />
<glyph unicode="v" horiz-adv-x="1042" d="M164 1049l256 -783l260 785q31 88 92 88q72 0 72 -72q0 -18 -6 -33l-334 -973q-20 -61 -90 -61q-61 0 -82 61l-326 971q-6 18 -6 35q0 33 21.5 52.5t54.5 19.5q59 0 88 -90z" />
<glyph unicode="w" horiz-adv-x="1779" d="M162 1073l256 -817l276 807q25 72 92 72q33 0 65 -19.5t40 -52.5l262 -799l250 811q20 63 86 64q68 0 67 -78q0 -20 -10 -51q0 -23 -307 -932q-27 -76 -92 -76q-61 0 -88 82l-275 805l-264 -811q-25 -78 -98.5 -78t-102.5 84q-319 948 -319 971q0 82 76 82q61 -1 86 -64z " />
<glyph unicode="x" horiz-adv-x="1128" d="M35 156l336 456l-291 389q-23 33 -23 60q0 31 23.5 52.5t54.5 21.5q49 0 80 -45l250 -359l254 361q31 45 78 45q33 0 56.5 -20.5t23.5 -51.5t-25 -61l-301 -379l340 -461q39 -51 39 -96q0 -68 -66 -68q-57 0 -102 63l-307 426l-308 -428q-39 -57 -88 -57q-59 0 -59 64 q0 41 35 88z" />
<glyph unicode="y" horiz-adv-x="1069" d="M205 -346l139 360l-334 996q-10 31 -10 49q0 76 72 76q66 0 88 -72l270 -836l281 846q20 63 86 64q74 0 73 -74q0 -31 -6 -47l-506 -1413q-23 -68 -92 -68t-69 74q0 22 8 45z" />
<glyph unicode="z" horiz-adv-x="1081" d="M102 1135h625q92 0 92 -62q0 -43 -43 -104l-577 -824h577q76 0 76 -71q0 -74 -76 -74h-657q-119 0 -119 72q0 39 37 90l573 823h-508q-76 0 -75 76q-1 74 75 74z" />
<glyph unicode="{" horiz-adv-x="800" d="M0 719q0 10 3 18t10 14.5l12.5 11.5t17.5 10t18 7l22 7q15 5 19 8q111 45 111 319q0 80 -8 172q0 145 71.5 197.5t204.5 52.5q27 0 46.5 -20.5t19.5 -42.5q0 -53 -88 -54q-115 0 -115 -155q0 -29 4 -85.5t4 -78.5q0 -293 -172 -387q170 -61 170 -371q0 -33 -2 -90t-2 -80 q0 -78 27.5 -123t105.5 -47q68 -2 68 -53q0 -59 -66 -60q-166 0 -224 62.5t-58 167.5q0 31 4 102.5t4 110.5q0 270 -105 319q-6 2 -23.5 5t-24.5 5.5l-20.5 7.5t-18.5 10t-10 15.5t-5 24.5z" />
<glyph unicode="|" horiz-adv-x="403" d="M0 39v1546q0 88 76 88q74 0 74 -88v-1546q0 -76 -76 -76q-74 0 -74 76z" />
<glyph unicode="}" horiz-adv-x="800" d="M547 719q0 -14 -5 -24.5t-10.5 -15.5t-18.5 -10t-20.5 -7.5t-24.5 -5.5t-24 -5q-104 -49 -104 -319q0 -39 4 -110.5t4 -102.5q0 -104 -58.5 -167t-223.5 -63q-66 0 -66 60q0 51 68 53q78 2 105.5 47t27.5 123q0 23 -2 80t-2 90q0 309 170 371q-172 94 -172 387q0 23 4 79 t4 85q0 156 -115 155q-88 0 -88 54q0 23 20.5 43t45.5 20q133 0 204.5 -52t71.5 -198q-8 -92 -8 -172q0 -274 110 -319q4 -2 20 -8l21 -7q6 -2 18.5 -7t17.5 -10t12.5 -11.5t10.5 -14.5t3 -18z" />
<glyph unicode="~" horiz-adv-x="1255" d="M68 381q-68 0 -68 84q0 72 94 156t185 84q92 0 236 -78t196 -78q47 0 80 39l64 77q32 38 75 37q72 0 71 -90q0 -68 -103 -149.5t-198 -81.5q-82 0 -216 77t-201 77q-61 0 -117 -74q-59 -80 -98 -80z" />
<glyph unicode="&#xa3;" horiz-adv-x="1384" d="M309 713h-233q-76 0 -76 71q0 78 76 78h184q-111 158 -110 316q0 178 129 271t313 93q188 0 337.5 -103.5t162.5 -277.5q0 -35 -21.5 -59.5t-52.5 -24.5q-53 0 -80 64q-16 117 -116.5 184.5t-223.5 67.5q-113 0 -190.5 -59.5t-77.5 -168.5q0 -141 96 -303h274 q74 0 74 -76q0 -74 -74 -73h-235q33 -92 33 -178q0 -199 -205 -379h762q76 0 75 -78q0 -74 -75 -74h-895q-84 0 -84 72q0 43 67 112q94 100 142.5 183.5t48.5 185.5q0 74 -25 156z" />
<glyph unicode="&#xa4;" horiz-adv-x="1640" d="M133 180l201 162q-31 76 -31 178q0 113 43 203l-213 172q-61 51 -61 100q0 27 20.5 41.5t46.5 14.5q33 0 78 -35l213 -178q115 104 275 104q154 0 270 -98l207 172q41 35 78 35q27 0 47 -14.5t20 -41.5q0 -51 -61 -100l-199 -160q53 -96 53 -215q0 -104 -37 -194 l183 -146q61 -49 61 -100q0 -27 -20.5 -41t-46.5 -14q-41 0 -78 34l-176 146q-119 -125 -295 -125q-184 0 -303 137l-191 -158q-37 -35 -78 -34q-27 0 -47 14t-20 41q0 47 61 100zM436 518q0 -147 81 -229t193.5 -82t194.5 81t82 230q0 139 -84 219t-196.5 80t-191.5 -77 t-79 -222z" />
<glyph unicode="&#xa5;" horiz-adv-x="1261" d="M150 629h266v84l-70 121h-244q-90 0 -90 73q0 33 24.5 56.5t65.5 23.5h156l-244 432q-14 27 -14 54q0 31 20.5 51t47.5 20q39 0 63 -43l371 -622l370 622q25 43 70 43q66 0 66 -63q0 -27 -19 -62l-256 -432h166q88 0 88 -78q0 -76 -88 -75h-258l-72 -121v-84h267 q90 0 90 -78q0 -76 -90 -76h-267v-403q0 -86 -75 -86q-78 0 -78 86v403h-266q-88 0 -89 74q0 33 24 56.5t65 23.5z" />
<glyph unicode="&#xa6;" horiz-adv-x="403" d="M0 983v616q0 43 20.5 69t53 26t54.5 -20.5t22 -57.5v-633q0 -76 -76 -76q-74 0 -74 76zM0 74v663q0 43 20.5 68.5t53.5 25.5q76 0 76 -75v-682q0 -74 -76 -74q-74 0 -74 74z" />
<glyph unicode="&#xa7;" horiz-adv-x="1099" d="M647 696q0 63 -47 109.5t-118 72.5l-153 57q-83 32 -154 62.5t-118 89t-47 138.5q0 164 119 252t293 88q170 0 317 -80q39 -20 39 -72q0 -35 -21.5 -55.5t-51.5 -20.5q-25 0 -46 13q-92 53 -245 53q-102 0 -169 -38t-67 -122q0 -20 8.5 -37.5t26.5 -33t35.5 -27.5 t51.5 -27l55 -23l66 -26l64 -25q340 -133 340 -333q0 -55 -25.5 -84t-60.5 -29q-37 0 -64.5 28.5t-27.5 69.5zM188 750q0 -63 47.5 -109.5t117.5 -72.5l154 -57q83 -32 153.5 -62.5t117.5 -89t47 -138.5q0 -164 -118.5 -252t-292.5 -88q-170 0 -318 80q-39 20 -39 72 q0 35 21.5 55.5t52.5 20.5q25 0 45 -13q92 -53 246 -53q102 0 168.5 38t66.5 122q0 20 -8 37.5t-26.5 33t-36 27.5t-50.5 27l-56 23l-65 26l-65 24q-340 133 -340 334q0 55 25.5 84t60.5 29q37 0 64.5 -28.5t27.5 -69.5z" />
<glyph unicode="&#xa8;" horiz-adv-x="839" d="M0 1331q0 43 29.5 73t72.5 30t73 -30t30 -73t-30 -72.5t-73 -29.5t-72.5 29.5t-29.5 72.5zM410 1331q0 43 29.5 73t72.5 30t72.5 -30t29.5 -73t-29.5 -72.5t-72.5 -29.5t-72.5 29.5t-29.5 72.5z" />
<glyph unicode="&#xa9;" horiz-adv-x="1806" d="M774 1518q340 0 555 -219.5t215 -557.5q0 -336 -217 -552t-557 -216t-555 217.5t-215 555t216 555t558 217.5zM778.5 113q274.5 0 445.5 178t171 452q0 276 -173 458.5t-447.5 182.5t-445.5 -180t-171 -454.5t173 -455.5t447.5 -181zM786 1098q-137 0 -221 -97.5 t-84 -259.5q0 -133 84 -237.5t207 -104.5q76 0 121 19q68 23 74 22q61 0 61 -59q0 -35 -33 -62q-66 -53 -207 -53q-197 0 -319.5 142.5t-122.5 343.5q0 207 132 345t315 138q92 0 194 -45q57 -29 57 -66q0 -29 -17 -49t-42 -20q-8 0 -16 4q-91 39 -183 39z" />
<glyph unicode="&#xaa;" d="M152 1104q150 61 340 61q197 0 306 -104.5t109 -265.5v-736q0 -31 -20.5 -53t-55 -22t-54 21.5t-21.5 51.5q-2 39 -2 70q-133 -143 -351 -143q-162 0 -277.5 89t-115.5 253q0 170 130 266t304 96q207 0 310 -102v194q0 106 -82 171t-226 65q-76 0 -168 -24.5t-114 -24.5 q-70 0 -70 63q1 49 58 74zM164 338q0 -104 76.5 -157.5t189.5 -53.5q125 0 223.5 61.5t98.5 161.5q0 88 -93.5 142.5t-214.5 54.5q-117 0 -198.5 -54.5t-81.5 -154.5z" />
<glyph unicode="&#xab;" horiz-adv-x="933" d="M666 879l-203 -318q16 -23 213 -360q4 -8 4 -15q0 -20 -27.5 -37.5t-56.5 -17.5q-35 0 -49 25l-205 333q-23 41 -23 70t23 70l205 334q16 23 51 22q82 0 82 -63q0 -23 -14 -43zM342 879l-199 -318l211 -360q4 -12 4 -15q0 -20 -27.5 -37.5t-56.5 -17.5q-33 0 -49 25 l-198 333q-27 45 -27 70q0 29 27 70l198 334q16 25 47 24.5t55.5 -23t24.5 -51.5q0 -18 -10 -34z" />
<glyph unicode="&#xac;" horiz-adv-x="1376" d="M967 246v243h-879q-88 0 -88 76q0 33 24.5 56.5t63.5 23.5h948q86 0 86 -96v-303q0 -88 -73 -88q-33 0 -57.5 23.5t-24.5 64.5z" />
<glyph unicode="&#xad;" horiz-adv-x="0" />
<glyph unicode="&#xae;" horiz-adv-x="1804" d="M772 1536q338 0 554 -220t216 -556q0 -338 -215 -554t-555 -216q-338 0 -555 220t-217 556t217 553t555 217zM543 1229h301q127 0 211 -80q82 -76 82 -182q0 -182 -228 -244l121 -182q96 -152 96 -176q0 -61 -82 -62q-51 0 -81 64l-203 356h-166v-356q0 -63 -70 -64 q-63 0 -63 64v778q0 59 26 74q21 10 56 10zM827 1112h-233v-272h233q74 0 117 37.5t43 95t-44 98.5t-116 41zM780 125q276 0 444.5 175t168.5 458q0 276 -172 457.5t-449 181.5q-274 0 -448 -180.5t-174 -452.5t178 -455.5t452 -183.5z" />
<glyph unicode="&#xb0;" horiz-adv-x="655" d="M203 1640q90 0 147.5 -59t57.5 -147q0 -86 -58.5 -145.5t-146.5 -59.5t-145.5 59.5t-57.5 147.5q0 84 54.5 144t148.5 60zM205 1331q41 0 70.5 31t29.5 70q0 43 -27.5 73.5t-72.5 30.5q-47 0 -75 -29.5t-28 -72.5t27 -73t76 -30z" />
<glyph unicode="&#xb1;" horiz-adv-x="1280" d="M143 819h373v326q0 80 78 80q37 0 62.5 -22.5t25.5 -57.5v-326h373q47 0 74.5 -23.5t27.5 -60.5q0 -78 -102 -78h-373v-346q0 -35 -24.5 -56.5t-61.5 -21.5q-80 0 -80 78v346h-373q-84 0 -84 84q0 78 84 78zM154 156h915q88 0 88 -78q0 -76 -88 -76h-915q-90 0 -91 74 q0 33 25 56.5t66 23.5z" />
<glyph unicode="&#xb2;" horiz-adv-x="690" d="M-2 1309q0 94 66.5 152.5t152.5 58.5q84 0 148.5 -54.5t64.5 -138.5q0 -100 -72 -194l-241 -318h286q39 0 39 -39t-39 -39h-340q-55 0 -55 37q0 20 15 37l278 379q45 61 45 129q0 55 -40 88t-93 33t-92 -36t-39 -101q0 -16 -11.5 -33t-29.5 -17q-20 0 -31.5 18t-11.5 38z " />
<glyph unicode="&#xb3;" horiz-adv-x="638" d="M193 1522q92 0 147 -57.5t55 -143.5q0 -96 -84 -170q115 -74 115 -201q0 -90 -63.5 -157.5t-167.5 -67.5q-117 0 -183 92q-25 35 -24 72q0 41 35 41q29 0 36 -27q43 -96 136 -96q61 0 104 39t43 106q0 53 -30.5 96.5t-88.5 53.5q-2 0 -28.5 1t-30.5 1q-47 0 -47 37t45 37 q2 0 28.5 1t30.5 1q43 8 66.5 49t23.5 90q0 57 -32.5 92t-90.5 35q-45 0 -76.5 -30t-31.5 -73q0 -51 -39 -51q-43 0 -43 54q0 68 56.5 122t138.5 54z" />
<glyph unicode="&#xb5;" horiz-adv-x="1081" d="M-2 -408v1469q0 76 78 76q76 0 76 -76v-674q0 -109 71.5 -177.5t177.5 -68.5q135 0 219.5 95.5t84.5 236.5v588q0 76 77 76q76 0 76 -76v-973q0 -88 -76 -88q-72 0 -75 78q-2 27 -2 72q-117 -166 -322 -166q-66 0 -130.5 29.5t-100.5 80.5v-502q0 -76 -78 -75 q-76 -1 -76 75z" />
<glyph unicode="&#xb6;" horiz-adv-x="1177" d="M397 70v745q-182 0 -289.5 92t-107.5 240q0 193 126 295t376 102h420q29 -2 48 -21.5t19 -46t-19.5 -47t-47.5 -20.5h-99v-1339q0 -29 -20.5 -49.5t-49 -20.5t-48 20.5t-19.5 49.5v1339h-154v-1339q0 -29 -20 -49.5t-49 -20.5t-47.5 20.5t-18.5 49.5z" />
<glyph unicode="&#xb7;" horiz-adv-x="468" d="M0 717q0 43 29.5 72.5t72.5 29.5t73 -29.5t30 -72.5t-30 -73t-73 -30t-72.5 30t-29.5 73z" />
<glyph unicode="&#xb9;" horiz-adv-x="757" d="M295 88v1253l-201 -57q-20 -4 -26 -4q-31 0 -51.5 18.5t-20.5 49.5q0 66 76 86q305 86 313 86q49 0 66 -41q10 -20 10 -105v-1286q0 -39 -22.5 -63.5t-59.5 -24.5q-39 0 -61.5 24.5t-22.5 63.5z" />
<glyph unicode="&#xba;" horiz-adv-x="1208" d="M496 1174q156 0 271.5 -91.5t169.5 -227.5t54 -294q0 -244 -132 -414t-363.5 -170t-363.5 176.5t-132 422t132.5 422t363.5 176.5zM496 1026q-166 0 -251 -129t-85 -307q0 -180 87 -325.5t249 -145.5q164 0 251 127t87 303q0 111 -35 216t-114.5 183t-188.5 78z" />
<glyph unicode="&#xbb;" horiz-adv-x="937" d="M326 197l215 364l-205 318q-18 31 -19 55q0 59 72 59q45 0 64 -30l206 -334q25 -39 25 -70t-25 -70l-206 -333q-12 -23 -60 -23q-76 0 -76 43q1 13 9 21zM6 197l213 364l-213 359q-6 10 -6 18q0 20 24.5 37.5t55.5 17.5q39 0 57 -30l199 -334q27 -41 26 -70 q0 -25 -26 -70l-199 -333q-12 -23 -55 -23q-82 0 -82 45q0 11 6 19z" />
<glyph unicode="&#xbd;" horiz-adv-x="1941" d="M395 72l559 1444q18 47 70 47q57 0 57 -58q0 -16 -6 -35l-565 -1441q-14 -41 -55 -41q-27 0 -45.5 16t-18.5 43q0 17 4 25zM221 455v940l-151 -43q-6 -2 -19 -2q-25 0 -40 13t-15 36q0 51 57 65q223 63 236 64q37 0 49 -31q8 -16 8 -78v-964q0 -29 -17.5 -47.5 t-43.5 -18.5q-29 0 -46.5 18.5t-17.5 47.5zM1071 856q0 141 100.5 229.5t231.5 88.5q125 0 222 -82t97 -207q0 -147 -110 -293l-363 -475h432q57 0 58 -58q0 -59 -60 -59h-508q-84 0 -84 55q0 25 23 58l418 567q68 94 67 194q0 80 -60 130.5t-138 50.5q-82 0 -140.5 -54.5 t-58.5 -150.5q0 -27 -16.5 -50.5t-44.5 -23.5q-31 0 -48.5 25.5t-17.5 54.5z" />
<glyph unicode="&#xc0;" horiz-adv-x="1388" d="M836 2077l-139 -315q-31 -72 -74 -72q-39 0 -64.5 20.5t-25.5 48.5q0 18 8 35l137 320q27 57 78 57q37 0 60.5 -19.5t23.5 -54.5q0 -8 -4 -20zM592 1307l-307 -840h606zM1053 49l-107 262h-704l-84 -233q-29 -78 -92 -78q-66 0 -66 72q0 16 8 41l463 1310q33 92 119 92.5 t119 -92.5l479 -1310q8 -18 8 -43q0 -70 -70 -70q-55 0 -73 49z" />
<glyph unicode="&#xc2;" horiz-adv-x="1388" d="M682 2628l441 -807q16 -33 16 -62q0 -70 -76 -69q-51 0 -96 82l-369 690l-389 -690q-27 -47 -43 -64.5t-47 -17.5q-33 0 -56.5 17.5t-23.5 49.5q0 29 19 64l457 807q27 51 83.5 51t83.5 -51zM592 1307l-307 -840h606zM1053 49l-107 262h-704l-84 -233q-29 -78 -92 -78 q-66 0 -66 72q0 16 8 41l463 1310q33 92 119 92.5t119 -92.5l479 -1310q8 -18 8 -43q0 -70 -70 -70q-55 0 -73 49z" />
<glyph unicode="&#xc3;" horiz-adv-x="1388" d="M158 1690q-68 0 -68 84q0 72 94 156t185 84q92 0 236 -78t196 -78q47 0 80 39l64 77q32 38 75 37q72 0 71 -90q0 -68 -103 -149.5t-198 -81.5q-82 0 -216 77t-201 77q-61 0 -117 -74q-59 -80 -98 -80zM592 1307l-307 -840h606zM1053 49l-107 262h-704l-84 -233 q-29 -78 -92 -78q-66 0 -66 72q0 16 8 41l463 1310q33 92 119 92.5t119 -92.5l479 -1310q8 -18 8 -43q0 -70 -70 -70q-55 0 -73 49z" />
<glyph unicode="&#xc4;" horiz-adv-x="1388" d="M283 1792q0 43 29.5 73t72.5 30t73 -30t30 -73t-30 -72.5t-73 -29.5t-72.5 29.5t-29.5 72.5zM693 1792q0 43 29.5 73t72.5 30t72.5 -30t29.5 -73t-29.5 -72.5t-72.5 -29.5t-72.5 29.5t-29.5 72.5zM592 1307l-307 -840h606zM1053 49l-107 262h-704l-84 -233 q-29 -78 -92 -78q-66 0 -66 72q0 16 8 41l463 1310q33 92 119 92.5t119 -92.5l479 -1310q8 -18 8 -43q0 -70 -70 -70q-55 0 -73 49z" />
<glyph unicode="&#xc5;" horiz-adv-x="1388" d="M588 1964q90 0 147.5 -59t57.5 -147q0 -86 -58.5 -145.5t-146.5 -59.5t-145.5 59.5t-57.5 147.5q0 84 54.5 144t148.5 60zM590 1655q41 0 70.5 31t29.5 70q0 43 -27.5 73.5t-72.5 30.5q-47 0 -75 -29.5t-28 -72.5t27 -73t76 -30zM592 1307l-307 -840h606zM1053 49 l-107 262h-704l-84 -233q-29 -78 -92 -78q-66 0 -66 72q0 16 8 41l463 1310q33 92 119 92.5t119 -92.5l479 -1310q8 -18 8 -43q0 -70 -70 -70q-55 0 -73 49z" />
<glyph unicode="&#xc8;" horiz-adv-x="1007" d="M641 2077l-139 -315q-31 -72 -74 -72q-39 0 -64.5 20.5t-25.5 48.5q0 18 8 35l137 320q27 57 78 57q37 0 60.5 -19.5t23.5 -54.5q0 -8 -4 -20zM0 92v1331q0 92 84 93h623q76 0 75 -76q0 -74 -75 -74h-557v-504h458q76 0 76 -78q0 -72 -76 -71h-458v-563h573q88 0 88 -76 q0 -74 -88 -74h-639q-53 0 -68.5 17.5t-15.5 74.5z" />
<glyph unicode="&#xca;" horiz-adv-x="1007" d="M489 2628l441 -807q16 -33 16 -62q0 -70 -76 -69q-51 0 -96 82l-369 690l-389 -690q-27 -47 -43 -64.5t-47 -17.5q-33 0 -56.5 17.5t-23.5 49.5q0 29 19 64l457 807q27 51 83.5 51t83.5 -51zM0 92v1331q0 92 84 93h623q76 0 75 -76q0 -74 -75 -74h-557v-504h458 q76 0 76 -78q0 -72 -76 -71h-458v-563h573q88 0 88 -76q0 -74 -88 -74h-639q-53 0 -68.5 17.5t-15.5 74.5z" />
<glyph unicode="&#xcb;" horiz-adv-x="1007" d="M88 1792q0 43 29.5 73t72.5 30t73 -30t30 -73t-30 -72.5t-73 -29.5t-72.5 29.5t-29.5 72.5zM498 1792q0 43 29.5 73t72.5 30t72.5 -30t29.5 -73t-29.5 -72.5t-72.5 -29.5t-72.5 29.5t-29.5 72.5zM0 92v1331q0 92 84 93h623q76 0 75 -76q0 -74 -75 -74h-557v-504h458 q76 0 76 -78q0 -72 -76 -71h-458v-563h573q88 0 88 -76q0 -74 -88 -74h-639q-53 0 -68.5 17.5t-15.5 74.5z" />
<glyph unicode="&#xcc;" horiz-adv-x="391" d="M319 2077l-139 -315q-31 -72 -74 -72q-39 0 -64.5 20.5t-25.5 48.5q0 18 8 35l137 320q27 57 78 57q37 0 60.5 -19.5t23.5 -54.5q0 -8 -4 -20zM0 76v1368q0 76 74 76q76 0 76 -76v-1368q0 -76 -76 -76q-74 0 -74 76z" />
<glyph unicode="&#xce;" horiz-adv-x="391" d="M165 2628l441 -807q16 -33 16 -62q0 -70 -76 -69q-51 0 -96 82l-369 690l-389 -690q-27 -47 -43 -64.5t-47 -17.5q-33 0 -56.5 17.5t-23.5 49.5q0 29 19 64l457 807q27 51 83.5 51t83.5 -51zM0 76v1368q0 76 74 76q76 0 76 -76v-1368q0 -76 -76 -76q-74 0 -74 76z" />
<glyph unicode="&#xcf;" horiz-adv-x="391" d="M-233 1792q0 43 29.5 73t72.5 30t73 -30t30 -73t-30 -72.5t-73 -29.5t-72.5 29.5t-29.5 72.5zM177 1792q0 43 29.5 73t72.5 30t72.5 -30t29.5 -73t-29.5 -72.5t-72.5 -29.5t-72.5 29.5t-29.5 72.5zM0 76v1368q0 76 74 76q76 0 76 -76v-1368q0 -76 -76 -76q-74 0 -74 76z " />
<glyph unicode="&#xd1;" horiz-adv-x="1368" d="M-358 1690q-68 0 -68 84q0 72 94 156t185 84q92 0 236 -78t196 -78q47 0 80 39l64 77q32 38 75 37q72 0 71 -90q0 -68 -103 -149.5t-198 -81.5q-82 0 -216 77t-201 77q-61 0 -117 -74q-59 -80 -98 -80zM0 78v1352q0 90 74 90q57 0 106 -74l799 -1176v1170q0 78 74 78 q76 0 75 -78v-1350q0 -90 -73 -90q-59 0 -103 61l-802 1172v-1155q0 -78 -74 -78q-76 0 -76 78z" />
<glyph unicode="&#xd2;" horiz-adv-x="1529" d="M897 2077l-139 -315q-31 -72 -74 -72q-39 0 -64.5 20.5t-25.5 48.5q0 18 8 35l137 320q27 57 78 57q37 0 60.5 -19.5t23.5 -54.5q0 -8 -4 -20zM651 1567q211 0 364.5 -118t225.5 -295t72 -384q0 -205 -72 -381t-225.5 -292.5t-364.5 -116.5q-207 0 -358.5 117.5 t-222 295.5t-70.5 383q0 152 42 291t120 252t204.5 180.5t284.5 67.5zM651 1413q-158 0 -273.5 -93t-167.5 -233.5t-52 -306.5q0 -170 54 -315.5t170 -241.5t273 -96q160 0 277 94t169 234.5t52 308.5q0 264 -132 456.5t-370 192.5z" />
<glyph unicode="&#xd4;" horiz-adv-x="1529" d="M743 2628l441 -807q16 -33 16 -62q0 -70 -76 -69q-51 0 -96 82l-369 690l-389 -690q-27 -47 -43 -64.5t-47 -17.5q-33 0 -56.5 17.5t-23.5 49.5q0 29 19 64l457 807q27 51 83.5 51t83.5 -51zM651 1567q211 0 364.5 -118t225.5 -295t72 -384q0 -205 -72 -381 t-225.5 -292.5t-364.5 -116.5q-207 0 -358.5 117.5t-222 295.5t-70.5 383q0 152 42 291t120 252t204.5 180.5t284.5 67.5zM651 1413q-158 0 -273.5 -93t-167.5 -233.5t-52 -306.5q0 -170 54 -315.5t170 -241.5t273 -96q160 0 277 94t169 234.5t52 308.5q0 264 -132 456.5 t-370 192.5z" />
<glyph unicode="&#xd5;" horiz-adv-x="1529" d="M220 1690q-68 0 -68 84q0 72 94 156t185 84q92 0 236 -78t196 -78q47 0 80 39l64 77q32 38 75 37q72 0 71 -90q0 -68 -103 -149.5t-198 -81.5q-82 0 -216 77t-201 77q-61 0 -117 -74q-59 -80 -98 -80zM651 1567q211 0 364.5 -118t225.5 -295t72 -384q0 -205 -72 -381 t-225.5 -292.5t-364.5 -116.5q-207 0 -358.5 117.5t-222 295.5t-70.5 383q0 152 42 291t120 252t204.5 180.5t284.5 67.5zM651 1413q-158 0 -273.5 -93t-167.5 -233.5t-52 -306.5q0 -170 54 -315.5t170 -241.5t273 -96q160 0 277 94t169 234.5t52 308.5q0 264 -132 456.5 t-370 192.5z" />
<glyph unicode="&#xd6;" horiz-adv-x="1529" d="M344 1792q0 43 29.5 73t72.5 30t73 -30t30 -73t-30 -72.5t-73 -29.5t-72.5 29.5t-29.5 72.5zM754 1792q0 43 29.5 73t72.5 30t72.5 -30t29.5 -73t-29.5 -72.5t-72.5 -29.5t-72.5 29.5t-29.5 72.5zM651 1567q211 0 364.5 -118t225.5 -295t72 -384q0 -205 -72 -381 t-225.5 -292.5t-364.5 -116.5q-207 0 -358.5 117.5t-222 295.5t-70.5 383q0 152 42 291t120 252t204.5 180.5t284.5 67.5zM651 1413q-158 0 -273.5 -93t-167.5 -233.5t-52 -306.5q0 -170 54 -315.5t170 -241.5t273 -96q160 0 277 94t169 234.5t52 308.5q0 264 -132 456.5 t-370 192.5z" />
<glyph unicode="&#xd9;" horiz-adv-x="1396" d="M827 2077l-139 -315q-31 -72 -74 -72q-39 0 -64.5 20.5t-25.5 48.5q0 18 8 35l137 320q27 57 78 57q37 0 60.5 -19.5t23.5 -54.5q0 -8 -4 -20zM0 584v846q0 88 84 88q82 0 82 -88v-830q0 -457 426 -457q190 0 296.5 102.5t106.5 354.5v830q0 88 84 88t84 -88v-846 q0 -164 -47 -285t-131 -189.5t-186.5 -100.5t-225.5 -32q-258 0 -415.5 145t-157.5 462z" />
<glyph unicode="&#xdb;" horiz-adv-x="1396" d="M673 2628l441 -807q16 -33 16 -62q0 -70 -76 -69q-51 0 -96 82l-369 690l-389 -690q-27 -47 -43 -64.5t-47 -17.5q-33 0 -56.5 17.5t-23.5 49.5q0 29 19 64l457 807q27 51 83.5 51t83.5 -51zM0 584v846q0 88 84 88q82 0 82 -88v-830q0 -457 426 -457q190 0 296.5 102.5 t106.5 354.5v830q0 88 84 88t84 -88v-846q0 -164 -47 -285t-131 -189.5t-186.5 -100.5t-225.5 -32q-258 0 -415.5 145t-157.5 462z" />
<glyph unicode="&#xdc;" horiz-adv-x="1396" d="M274 1792q0 43 29.5 73t72.5 30t73 -30t30 -73t-30 -72.5t-73 -29.5t-72.5 29.5t-29.5 72.5zM684 1792q0 43 29.5 73t72.5 30t72.5 -30t29.5 -73t-29.5 -72.5t-72.5 -29.5t-72.5 29.5t-29.5 72.5zM0 584v846q0 88 84 88q82 0 82 -88v-830q0 -457 426 -457 q190 0 296.5 102.5t106.5 354.5v830q0 88 84 88t84 -88v-846q0 -164 -47 -285t-131 -189.5t-186.5 -100.5t-225.5 -32q-258 0 -415.5 145t-157.5 462z" />
<glyph unicode="&#xe0;" d="M737 1684l-139 -315q-31 -72 -74 -72q-39 0 -64.5 20.5t-25.5 48.5q0 18 8 35l137 320q27 57 78 57q37 0 60.5 -19.5t23.5 -54.5q0 -8 -4 -20zM152 1104q150 61 340 61q197 0 306 -104.5t109 -265.5v-736q0 -31 -20.5 -53t-55 -22t-54 21.5t-21.5 51.5q-2 39 -2 70 q-133 -143 -351 -143q-162 0 -277.5 89t-115.5 253q0 170 130 266t304 96q207 0 310 -102v194q0 106 -82 171t-226 65q-76 0 -168 -24.5t-114 -24.5q-70 0 -70 63q1 49 58 74zM164 338q0 -104 76.5 -157.5t189.5 -53.5q125 0 223.5 61.5t98.5 161.5q0 88 -93.5 142.5 t-214.5 54.5q-117 0 -198.5 -54.5t-81.5 -154.5z" />
<glyph unicode="&#xe2;" d="M583 2235l441 -807q16 -33 16 -62q0 -70 -76 -69q-51 0 -96 82l-369 690l-389 -690q-27 -47 -43 -64.5t-47 -17.5q-33 0 -56.5 17.5t-23.5 49.5q0 29 19 64l457 807q27 51 83.5 51t83.5 -51zM152 1104q150 61 340 61q197 0 306 -104.5t109 -265.5v-736q0 -31 -20.5 -53 t-55 -22t-54 21.5t-21.5 51.5q-2 39 -2 70q-133 -143 -351 -143q-162 0 -277.5 89t-115.5 253q0 170 130 266t304 96q207 0 310 -102v194q0 106 -82 171t-226 65q-76 0 -168 -24.5t-114 -24.5q-70 0 -70 63q1 49 58 74zM164 338q0 -104 76.5 -157.5t189.5 -53.5 q125 0 223.5 61.5t98.5 161.5q0 88 -93.5 142.5t-214.5 54.5q-117 0 -198.5 -54.5t-81.5 -154.5z" />
<glyph unicode="&#xe3;" d="M60 1296q-68 0 -68 84q0 72 94 156t185 84q92 0 236 -78t196 -78q47 0 80 39l64 77q32 38 75 37q72 0 71 -90q0 -68 -103 -149.5t-198 -81.5q-82 0 -216 77t-201 77q-61 0 -117 -74q-59 -80 -98 -80zM152 1104q150 61 340 61q197 0 306 -104.5t109 -265.5v-736 q0 -31 -20.5 -53t-55 -22t-54 21.5t-21.5 51.5q-2 39 -2 70q-133 -143 -351 -143q-162 0 -277.5 89t-115.5 253q0 170 130 266t304 96q207 0 310 -102v194q0 106 -82 171t-226 65q-76 0 -168 -24.5t-114 -24.5q-70 0 -70 63q1 49 58 74zM164 338q0 -104 76.5 -157.5 t189.5 -53.5q125 0 223.5 61.5t98.5 161.5q0 88 -93.5 142.5t-214.5 54.5q-117 0 -198.5 -54.5t-81.5 -154.5z" />
<glyph unicode="&#xe4;" d="M184 1399q0 43 29.5 73t72.5 30t73 -30t30 -73t-30 -72.5t-73 -29.5t-72.5 29.5t-29.5 72.5zM594 1399q0 43 29.5 73t72.5 30t72.5 -30t29.5 -73t-29.5 -72.5t-72.5 -29.5t-72.5 29.5t-29.5 72.5zM152 1104q150 61 340 61q197 0 306 -104.5t109 -265.5v-736 q0 -31 -20.5 -53t-55 -22t-54 21.5t-21.5 51.5q-2 39 -2 70q-133 -143 -351 -143q-162 0 -277.5 89t-115.5 253q0 170 130 266t304 96q207 0 310 -102v194q0 106 -82 171t-226 65q-76 0 -168 -24.5t-114 -24.5q-70 0 -70 63q1 49 58 74zM164 338q0 -104 76.5 -157.5 t189.5 -53.5q125 0 223.5 61.5t98.5 161.5q0 88 -93.5 142.5t-214.5 54.5q-117 0 -198.5 -54.5t-81.5 -154.5z" />
<glyph unicode="&#xe5;" d="M490 1708q90 0 147.5 -59t57.5 -147q0 -86 -58.5 -145.5t-146.5 -59.5t-145.5 59.5t-57.5 147.5q0 84 54.5 144t148.5 60zM492 1399q41 0 70.5 31t29.5 70q0 43 -27.5 73.5t-72.5 30.5q-47 0 -75 -29.5t-28 -72.5t27 -73t76 -30zM152 1104q150 61 340 61 q197 0 306 -104.5t109 -265.5v-736q0 -31 -20.5 -53t-55 -22t-54 21.5t-21.5 51.5q-2 39 -2 70q-133 -143 -351 -143q-162 0 -277.5 89t-115.5 253q0 170 130 266t304 96q207 0 310 -102v194q0 106 -82 171t-226 65q-76 0 -168 -24.5t-114 -24.5q-70 0 -70 63q1 49 58 74z M164 338q0 -104 76.5 -157.5t189.5 -53.5q125 0 223.5 61.5t98.5 161.5q0 88 -93.5 142.5t-214.5 54.5q-117 0 -198.5 -54.5t-81.5 -154.5z" />
<glyph unicode="&#xe8;" horiz-adv-x="1236" d="M741 1686l-139 -315q-31 -72 -74 -72q-39 0 -64.5 20.5t-25.5 48.5q0 18 8 35l137 320q27 57 78 57q37 0 60.5 -19.5t23.5 -54.5q0 -8 -4 -20zM496 1176q223 0 348 -141.5t125 -370.5q0 -90 -23.5 -128t-91.5 -38h-692q0 -137 114.5 -254t251.5 -117q88 0 149.5 22.5 t129.5 81.5q41 37 88 37q68 0 68 -69q0 -27 -15 -41q-145 -182 -420 -183q-244 0 -386 172t-142 426q0 242 134.5 422.5t361.5 180.5zM164 645h653q0 162 -86 270.5t-229 108.5q-145 0 -241.5 -111.5t-96.5 -267.5z" />
<glyph unicode="&#xea;" horiz-adv-x="1236" d="M587 2237l441 -807q16 -33 16 -62q0 -70 -76 -69q-51 0 -96 82l-369 690l-389 -690q-27 -47 -43 -64.5t-47 -17.5q-33 0 -56.5 17.5t-23.5 49.5q0 29 19 64l457 807q27 51 83.5 51t83.5 -51zM496 1176q223 0 348 -141.5t125 -370.5q0 -90 -23.5 -128t-91.5 -38h-692 q0 -137 114.5 -254t251.5 -117q88 0 149.5 22.5t129.5 81.5q41 37 88 37q68 0 68 -69q0 -27 -15 -41q-145 -182 -420 -183q-244 0 -386 172t-142 426q0 242 134.5 422.5t361.5 180.5zM164 645h653q0 162 -86 270.5t-229 108.5q-145 0 -241.5 -111.5t-96.5 -267.5z" />
<glyph unicode="&#xeb;" horiz-adv-x="1236" d="M188 1401q0 43 29.5 73t72.5 30t73 -30t30 -73t-30 -72.5t-73 -29.5t-72.5 29.5t-29.5 72.5zM598 1401q0 43 29.5 73t72.5 30t72.5 -30t29.5 -73t-29.5 -72.5t-72.5 -29.5t-72.5 29.5t-29.5 72.5zM496 1176q223 0 348 -141.5t125 -370.5q0 -90 -23.5 -128t-91.5 -38h-692 q0 -137 114.5 -254t251.5 -117q88 0 149.5 22.5t129.5 81.5q41 37 88 37q68 0 68 -69q0 -27 -15 -41q-145 -182 -420 -183q-244 0 -386 172t-142 426q0 242 134.5 422.5t361.5 180.5zM164 645h653q0 162 -86 270.5t-229 108.5q-145 0 -241.5 -111.5t-96.5 -267.5z" />
<glyph unicode="&#xec;" horiz-adv-x="471" d="M348 2118l-139 -315q-31 -72 -74 -72q-39 0 -64.5 20.5t-25.5 48.5q0 18 8 35l137 320q27 57 78 57q37 0 60.5 -19.5t23.5 -54.5q0 -8 -4 -20zM31 76v1011q0 76 75 76q80 0 80 -76v-1011q0 -76 -77.5 -76t-77.5 76zM0 1505q0 43 29.5 73t72.5 30t73 -30t30 -73t-30 -72.5 t-73 -29.5t-72.5 29.5t-29.5 72.5z" />
<glyph unicode="&#xee;" horiz-adv-x="471" d="M194 2669l441 -807q16 -33 16 -62q0 -70 -76 -69q-51 0 -96 82l-369 690l-389 -690q-27 -47 -43 -64.5t-47 -17.5q-33 0 -56.5 17.5t-23.5 49.5q0 29 19 64l457 807q27 51 83.5 51t83.5 -51zM31 76v1011q0 76 75 76q80 0 80 -76v-1011q0 -76 -77.5 -76t-77.5 76zM0 1505 q0 43 29.5 73t72.5 30t73 -30t30 -73t-30 -72.5t-73 -29.5t-72.5 29.5t-29.5 72.5z" />
<glyph unicode="&#xef;" horiz-adv-x="471" d="M-205 1833q0 43 29.5 73t72.5 30t73 -30t30 -73t-30 -72.5t-73 -29.5t-72.5 29.5t-29.5 72.5zM205 1833q0 43 29.5 73t72.5 30t72.5 -30t29.5 -73t-29.5 -72.5t-72.5 -29.5t-72.5 29.5t-29.5 72.5zM31 76v1011q0 76 75 76q80 0 80 -76v-1011q0 -76 -77.5 -76t-77.5 76z M0 1505q0 43 29.5 73t72.5 30t73 -30t30 -73t-30 -72.5t-73 -29.5t-72.5 29.5t-29.5 72.5z" />
<glyph unicode="&#xf1;" horiz-adv-x="1079" d="M-6 1296q-68 0 -68 84q0 72 94 156t185 84q92 0 236 -78t196 -78q47 0 80 39l64 77q32 38 75 37q72 0 71 -90q0 -68 -103 -149.5t-198 -81.5q-82 0 -216 77t-201 77q-61 0 -117 -74q-59 -80 -98 -80zM0 74v999q0 80 74 80q76 0 76 -80v-78q98 178 307 179 q158 0 278.5 -109t120.5 -283v-708q0 -74 -76 -74q-74 0 -73 74v643q0 145 -81 226t-194 81q-115 0 -198.5 -82t-83.5 -225v-643q0 -74 -76 -74q-74 0 -74 74z" />
<glyph unicode="&#xf2;" horiz-adv-x="1208" d="M741 1684l-139 -315q-31 -72 -74 -72q-39 0 -64.5 20.5t-25.5 48.5q0 18 8 35l137 320q27 57 78 57q37 0 60.5 -19.5t23.5 -54.5q0 -8 -4 -20zM496 1174q156 0 271.5 -91.5t169.5 -227.5t54 -294q0 -244 -132 -414t-363.5 -170t-363.5 176.5t-132 422t132.5 422 t363.5 176.5zM496 1026q-166 0 -251 -129t-85 -307q0 -180 87 -325.5t249 -145.5q164 0 251 127t87 303q0 111 -35 216t-114.5 183t-188.5 78z" />
<glyph unicode="&#xf4;" horiz-adv-x="1208" d="M587 2235l441 -807q16 -33 16 -62q0 -70 -76 -69q-51 0 -96 82l-369 690l-389 -690q-27 -47 -43 -64.5t-47 -17.5q-33 0 -56.5 17.5t-23.5 49.5q0 29 19 64l457 807q27 51 83.5 51t83.5 -51zM496 1174q156 0 271.5 -91.5t169.5 -227.5t54 -294q0 -244 -132 -414 t-363.5 -170t-363.5 176.5t-132 422t132.5 422t363.5 176.5zM496 1026q-166 0 -251 -129t-85 -307q0 -180 87 -325.5t249 -145.5q164 0 251 127t87 303q0 111 -35 216t-114.5 183t-188.5 78z" />
<glyph unicode="&#xf5;" horiz-adv-x="1208" d="M64 1296q-68 0 -68 84q0 72 94 156t185 84q92 0 236 -78t196 -78q47 0 80 39l64 77q32 38 75 37q72 0 71 -90q0 -68 -103 -149.5t-198 -81.5q-82 0 -216 77t-201 77q-61 0 -117 -74q-59 -80 -98 -80zM496 1174q156 0 271.5 -91.5t169.5 -227.5t54 -294q0 -244 -132 -414 t-363.5 -170t-363.5 176.5t-132 422t132.5 422t363.5 176.5zM496 1026q-166 0 -251 -129t-85 -307q0 -180 87 -325.5t249 -145.5q164 0 251 127t87 303q0 111 -35 216t-114.5 183t-188.5 78z" />
<glyph unicode="&#xf6;" horiz-adv-x="1208" d="M188 1399q0 43 29.5 73t72.5 30t73 -30t30 -73t-30 -72.5t-73 -29.5t-72.5 29.5t-29.5 72.5zM598 1399q0 43 29.5 73t72.5 30t72.5 -30t29.5 -73t-29.5 -72.5t-72.5 -29.5t-72.5 29.5t-29.5 72.5zM496 1174q156 0 271.5 -91.5t169.5 -227.5t54 -294q0 -244 -132 -414 t-363.5 -170t-363.5 176.5t-132 422t132.5 422t363.5 176.5zM496 1026q-166 0 -251 -129t-85 -307q0 -180 87 -325.5t249 -145.5q164 0 251 127t87 303q0 111 -35 216t-114.5 183t-188.5 78z" />
<glyph unicode="&#xf9;" horiz-adv-x="1083" d="M1051 1684l-139 -315q-31 -72 -74 -72q-39 0 -64.5 20.5t-25.5 48.5q0 18 8 35l137 320q27 57 78 57q37 0 60.5 -19.5t23.5 -54.5q0 -8 -4 -20zM152 1071l2 -575q0 -113 20.5 -191t59 -115.5t81.5 -52t99 -14.5q127 0 224 121t97 323v512q0 80 70 80q74 0 74 -80v-1040 q0 -68 -74 -68q-78 0 -78 70v137q-129 -213 -332 -213q-168 0 -280.5 114t-112.5 351v641q0 76 74 76q76 0 76 -76z" />
<glyph unicode="&#xfb;" horiz-adv-x="1083" d="M899 2235l441 -807q16 -33 16 -62q0 -70 -76 -69q-51 0 -96 82l-369 690l-389 -690q-27 -47 -43 -64.5t-47 -17.5q-33 0 -56.5 17.5t-23.5 49.5q0 29 19 64l457 807q27 51 83.5 51t83.5 -51zM152 1071l2 -575q0 -113 20.5 -191t59 -115.5t81.5 -52t99 -14.5 q127 0 224 121t97 323v512q0 80 70 80q74 0 74 -80v-1040q0 -68 -74 -68q-78 0 -78 70v137q-129 -213 -332 -213q-168 0 -280.5 114t-112.5 351v641q0 76 74 76q76 0 76 -76z" />
<glyph unicode="&#xfc;" horiz-adv-x="1083" d="M498 1399q0 43 29.5 73t72.5 30t73 -30t30 -73t-30 -72.5t-73 -29.5t-72.5 29.5t-29.5 72.5zM908 1399q0 43 29.5 73t72.5 30t72.5 -30t29.5 -73t-29.5 -72.5t-72.5 -29.5t-72.5 29.5t-29.5 72.5zM152 1071l2 -575q0 -113 20.5 -191t59 -115.5t81.5 -52t99 -14.5 q127 0 224 121t97 323v512q0 80 70 80q74 0 74 -80v-1040q0 -68 -74 -68q-78 0 -78 70v137q-129 -213 -332 -213q-168 0 -280.5 114t-112.5 351v641q0 76 74 76q76 0 76 -76z" />
<glyph unicode="&#xff;" horiz-adv-x="1069" d="M489 1399q0 43 29.5 73t72.5 30t73 -30t30 -73t-30 -72.5t-73 -29.5t-72.5 29.5t-29.5 72.5zM899 1399q0 43 29.5 73t72.5 30t72.5 -30t29.5 -73t-29.5 -72.5t-72.5 -29.5t-72.5 29.5t-29.5 72.5zM205 -346l139 360l-334 996q-10 31 -10 49q0 76 72 76q66 0 88 -72 l270 -836l281 846q20 63 86 64q74 0 73 -74q0 -31 -6 -47l-506 -1413q-23 -68 -92 -68t-69 74q0 22 8 45z" />
<glyph unicode="&#x152;" horiz-adv-x="2537" d="M1530 92v1331q0 92 84 93h623q76 0 75 -76q0 -74 -75 -74h-557v-504h458q76 0 76 -78q0 -72 -76 -71h-458v-563h573q88 0 88 -76q0 -74 -88 -74h-639q-53 0 -68.5 17.5t-15.5 74.5zM651 1567q211 0 364.5 -118t225.5 -295t72 -384q0 -205 -72 -381t-225.5 -292.5 t-364.5 -116.5q-207 0 -358.5 117.5t-222 295.5t-70.5 383q0 152 42 291t120 252t204.5 180.5t284.5 67.5zM651 1413q-158 0 -273.5 -93t-167.5 -233.5t-52 -306.5q0 -170 54 -315.5t170 -241.5t273 -96q160 0 277 94t169 234.5t52 308.5q0 264 -132 456.5t-370 192.5z" />
<glyph unicode="&#x153;" horiz-adv-x="2445" d="M1704 1176q223 0 348 -141.5t125 -370.5q0 -90 -23.5 -128t-91.5 -38h-692q0 -137 114.5 -254t251.5 -117q88 0 149.5 22.5t129.5 81.5q41 37 88 37q68 0 68 -69q0 -27 -15 -41q-145 -182 -420 -183q-244 0 -386 172t-142 426q0 242 134.5 422.5t361.5 180.5zM1372 645 h653q0 162 -86 270.5t-229 108.5q-145 0 -241.5 -111.5t-96.5 -267.5zM496 1174q156 0 271.5 -91.5t169.5 -227.5t54 -294q0 -244 -132 -414t-363.5 -170t-363.5 176.5t-132 422t132.5 422t363.5 176.5zM496 1026q-166 0 -251 -129t-85 -307q0 -180 87 -325.5t249 -145.5 q164 0 251 127t87 303q0 111 -35 216t-114.5 183t-188.5 78z" />
<glyph unicode="&#x178;" horiz-adv-x="1163" d="M184 1792q0 43 29.5 73t72.5 30t73 -30t30 -73t-30 -72.5t-73 -29.5t-72.5 29.5t-29.5 72.5zM594 1792q0 43 29.5 73t72.5 30t72.5 -30t29.5 -73t-29.5 -72.5t-72.5 -29.5t-72.5 29.5t-29.5 72.5zM403 88v625l-389 682q-14 27 -14 53q0 72 68 72q39 0 63 -43l358 -598 l351 594q29 47 73 47q68 0 68 -66q0 -20 -12 -43l-412 -698v-625q0 -88 -76 -88q-78 0 -78 88z" />
<glyph unicode="&#x2c6;" horiz-adv-x="1280" d="M702 1485l441 -807q16 -33 16 -62q0 -70 -76 -69q-51 0 -96 82l-369 690l-389 -690q-27 -47 -43 -64.5t-47 -17.5q-33 0 -56.5 17.5t-23.5 49.5q0 29 19 64l457 807q27 51 83.5 51t83.5 -51z" />
<glyph unicode="&#x2dc;" horiz-adv-x="638" d="M-432 123q-68 0 -68 84q0 72 94 156t185 84q92 0 236 -78t196 -78q47 0 80 39l64 77q32 38 75 37q72 0 71 -90q0 -68 -103 -149.5t-198 -81.5q-82 0 -216 77t-201 77q-61 0 -117 -74q-59 -80 -98 -80z" />
<glyph unicode="&#x2000;" horiz-adv-x="1359" />
<glyph unicode="&#x2001;" horiz-adv-x="2719" />
<glyph unicode="&#x2002;" horiz-adv-x="1359" />
<glyph unicode="&#x2003;" horiz-adv-x="2719" />
<glyph unicode="&#x2004;" horiz-adv-x="905" />
<glyph unicode="&#x2005;" horiz-adv-x="679" />
<glyph unicode="&#x2006;" horiz-adv-x="452" />
<glyph unicode="&#x2007;" horiz-adv-x="452" />
<glyph unicode="&#x2008;" horiz-adv-x="339" />
<glyph unicode="&#x2009;" horiz-adv-x="542" />
<glyph unicode="&#x200a;" horiz-adv-x="149" />
<glyph unicode="&#x2010;" horiz-adv-x="823" d="M96 645h422q88 0 88 -80q0 -76 -88 -76h-422q-90 0 -90 76q0 33 24.5 56.5t65.5 23.5z" />
<glyph unicode="&#x2011;" horiz-adv-x="823" d="M96 645h422q88 0 88 -80q0 -76 -88 -76h-422q-90 0 -90 76q0 33 24.5 56.5t65.5 23.5z" />
<glyph unicode="&#x2012;" horiz-adv-x="823" d="M96 645h422q88 0 88 -80q0 -76 -88 -76h-422q-90 0 -90 76q0 33 24.5 56.5t65.5 23.5z" />
<glyph unicode="&#x2013;" horiz-adv-x="1466" d="M88 645h1036q88 0 88 -80q0 -76 -88 -76h-1036q-88 0 -88 76q0 33 24.5 56.5t63.5 23.5z" />
<glyph unicode="&#x2014;" horiz-adv-x="1871" d="M88 645h1442q88 0 88 -80q0 -76 -88 -76h-1442q-88 0 -88 76q0 33 24.5 56.5t63.5 23.5z" />
<glyph unicode="&#x2018;" horiz-adv-x="557" d="M143 1505l154 -360q8 -10 8 -25q0 -27 -25.5 -49t-52.5 -22q-55 0 -84 71l-137 334q-6 12 -6 25q0 29 24.5 48t55.5 19q45 0 63 -41z" />
<glyph unicode="&#x2019;" horiz-adv-x="557" d="M8 1145l154 360q18 41 63 41q31 0 55.5 -19.5t24.5 -47.5q0 -12 -6 -25l-137 -334q-29 -72 -84 -71q-27 0 -52.5 22.5t-25.5 48.5q0 15 8 25z" />
<glyph unicode="&#x201a;" horiz-adv-x="557" d="M297 131l-154 -360q-18 -41 -63 -41q-31 0 -55.5 19.5t-24.5 47.5q0 12 6 25l137 334q27 66 88 65q27 0 50.5 -19.5t23.5 -45.5q0 -15 -8 -25z" />
<glyph unicode="&#x201c;" horiz-adv-x="890" d="M143 1505l154 -360q8 -10 8 -25q0 -27 -25.5 -49t-52.5 -22q-55 0 -84 71l-137 334q-6 12 -6 25q0 29 24.5 48t55.5 19q45 0 63 -41zM492 1505l153 -360q8 -10 8 -25q0 -27 -25.5 -49t-52.5 -22q-55 0 -83 71l-138 334q-6 12 -6 25q0 29 24.5 48t55.5 19q46 0 64 -41z " />
<glyph unicode="&#x201d;" horiz-adv-x="890" d="M356 1145l154 360q18 41 63 41q31 0 55.5 -19.5t24.5 -47.5q0 -12 -6 -25l-137 -334q-29 -72 -84 -71q-27 0 -52.5 22.5t-25.5 48.5q0 15 8 25zM8 1145l154 360q18 41 63 41q31 0 55.5 -19.5t24.5 -47.5q0 -12 -6 -25l-137 -334q-29 -72 -84 -71q-27 0 -52.5 22.5 t-25.5 48.5q0 15 8 25z" />
<glyph unicode="&#x201e;" horiz-adv-x="888" d="M297 131l-154 -360q-18 -41 -63 -41q-31 0 -55.5 19.5t-24.5 47.5q0 12 6 25l137 334q12 27 37 47t53 20q27 0 49.5 -20.5t22.5 -46.5q0 -15 -8 -25zM625 131l-154 -360q-18 -41 -63 -41q-31 0 -55.5 19.5t-24.5 47.5q0 12 6 25l137 334q10 27 35.5 46t54.5 19 q27 0 49.5 -19.5t22.5 -45.5q0 -15 -8 -25z" />
<glyph unicode="&#x2022;" horiz-adv-x="1191" d="M469 1061q154 0 253 -100.5t99 -254t-99 -255t-253 -101.5t-253 101.5t-99 255t99 254t253 100.5z" />
<glyph unicode="&#x2026;" horiz-adv-x="1134" d="M348 102q0 43 30 73t73 30t72.5 -30t29.5 -73t-29.5 -72.5t-72.5 -29.5t-73 29.5t-30 72.5zM676 102q0 43 29.5 73t72.5 30t73 -30t30 -73t-30 -72.5t-73 -29.5t-72.5 29.5t-29.5 72.5zM0 102q0 43 29.5 73t72.5 30t73 -30t30 -73t-30 -72.5t-73 -29.5t-72.5 29.5 t-29.5 72.5z" />
<glyph unicode="&#x202f;" horiz-adv-x="542" />
<glyph unicode="&#x2039;" horiz-adv-x="1392" d="M1069 961l-844 -406l828 -401q74 -37 73 -95q0 -59 -69 -59q-33 0 -76 18l-909 453q-72 37 -72 96q0 57 72 92l932 435q39 16 63 16q18 0 35 -6q37 -14 37 -55q0 -55 -70 -88z" />
<glyph unicode="&#x203a;" horiz-adv-x="1392" d="M68 162l827 385l-827 422q-68 35 -68 86q0 63 72 63q23 0 49 -10l928 -455q90 -47 90 -96q0 -57 -107 -108l-911 -437q-25 -10 -45 -10q-74 0 -74 72q0 57 66 88z" />
<glyph unicode="&#x205f;" horiz-adv-x="679" />
<glyph unicode="&#x20ac;" horiz-adv-x="1597" d="M201 532h-119q-76 0 -76 72t76 72h96q-4 57 -4 88q0 47 2 72h-94q-76 0 -76 71.5t76 71.5h115q55 256 233 424t455 168q252 0 432 -168q39 -33 39 -74q0 -37 -21.5 -59.5t-52.5 -22.5q-39 0 -63 25q-129 129 -340 129q-201 0 -331 -118t-177 -304h712q80 0 80 -74 q0 -70 -80 -69h-735q-2 -20 -2 -58q0 -53 6 -102h525q80 0 79 -74q0 -70 -79 -70h-494q53 -176 181 -285.5t317 -109.5q197 0 336 139q23 23 51 23q74 0 73 -76q0 -47 -30 -76q-195 -170 -439 -170q-266 0 -439 155.5t-232 399.5z" />
<glyph unicode="&#x2122;" horiz-adv-x="1445" d="M188 821v649h-151q-37 0 -37 39q0 35 37 35h379q39 0 39 -37t-39 -37h-152v-649q0 -51 -37 -51q-39 0 -39 51zM610 1503l168 -590l176 590q18 55 72 56q55 0 64 -64l102 -670v-10q0 -35 -35 -35q-37 0 -43 41l-92 633l-203 -633q-14 -45 -41 -45q-29 0 -43 45l-194 633 l-92 -633q-6 -43 -43 -43q-33 0 -33 35v12l102 670q8 63 63.5 63t71.5 -55z" />
<glyph unicode="&#xe000;" horiz-adv-x="1135" d="M0 1135h1135v-1135h-1135v1135z" />
<glyph unicode="&#xfb01;" horiz-adv-x="1175" d="M736 76v1011q0 76 75 76q80 0 80 -76v-1011q0 -76 -77.5 -76t-77.5 76zM705 1505q0 43 29.5 73t72.5 30t73 -30t30 -73t-30 -72.5t-73 -29.5t-72.5 29.5t-29.5 72.5zM180 74v907h-96q-84 0 -84 74q0 80 84 80h96q0 188 69.5 286.5t229.5 98.5q90 0 90 -72q0 -68 -90 -68 q-84 0 -116.5 -59t-32.5 -186q66 0 131 2q84 0 84 -78q0 -80 -88 -80h-127v-905q0 -74 -76 -74q-74 0 -74 74z" />
<glyph unicode="&#xfb02;" horiz-adv-x="1124" d="M705 76v1448q0 78 74 78q78 0 78 -78v-1448q0 -76 -76 -76t-76 76zM180 74v907h-96q-84 0 -84 74q0 80 84 80h96q0 188 69.5 286.5t229.5 98.5q90 0 90 -72q0 -68 -90 -68q-84 0 -116.5 -59t-32.5 -186q66 0 131 2q84 0 84 -78q0 -80 -88 -80h-127v-905q0 -74 -76 -74 q-74 0 -74 74z" />
<glyph unicode="&#xfb03;" horiz-adv-x="1880" d="M1440 76v1011q0 76 75 76q80 0 80 -76v-1011q0 -76 -77.5 -76t-77.5 76zM1409 1505q0 43 29.5 73t72.5 30t73 -30t30 -73t-30 -72.5t-73 -29.5t-72.5 29.5t-29.5 72.5zM885 74v907h-96q-84 0 -84 74q0 80 84 80h96q0 188 69.5 286.5t229.5 98.5q90 0 90 -72 q0 -68 -90 -68q-84 0 -116.5 -59t-32.5 -186q66 0 131 2q84 0 84 -78q0 -80 -88 -80h-127v-905q0 -74 -76 -74q-74 0 -74 74zM180 74v907h-96q-84 0 -84 74q0 80 84 80h96q0 188 69.5 286.5t229.5 98.5q90 0 90 -72q0 -68 -90 -68q-84 0 -116.5 -59t-32.5 -186q66 0 131 2 q84 0 84 -78q0 -80 -88 -80h-127v-905q0 -74 -76 -74q-74 0 -74 74z" />
<glyph unicode="&#xfb04;" horiz-adv-x="1828" d="M1409 76v1448q0 78 74 78q78 0 78 -78v-1448q0 -76 -76 -76t-76 76zM885 74v907h-96q-84 0 -84 74q0 80 84 80h96q0 188 69.5 286.5t229.5 98.5q90 0 90 -72q0 -68 -90 -68q-84 0 -116.5 -59t-32.5 -186q66 0 131 2q84 0 84 -78q0 -80 -88 -80h-127v-905q0 -74 -76 -74 q-74 0 -74 74zM180 74v907h-96q-84 0 -84 74q0 80 84 80h96q0 188 69.5 286.5t229.5 98.5q90 0 90 -72q0 -68 -90 -68q-84 0 -116.5 -59t-32.5 -186q66 0 131 2q84 0 84 -78q0 -80 -88 -80h-127v-905q0 -74 -76 -74q-74 0 -74 74z" />
</font>
</defs>
</svg>
